<?xml version="1.0" encoding="UTF-8"?><svg id="b" xmlns="http://www.w3.org/2000/svg" xmlns:xlink="http://www.w3.org/1999/xlink" viewBox="0 0 247.87 133.79"><defs><style>.ga{mask:url(#ek);}.gb{filter:url(#dv);}.gc{fill:url(#fn);}.gc,.gd,.ge,.gf,.gg,.gh,.gi,.gj,.gk,.gl,.gm,.gn,.go,.gp,.gq,.gr,.gs,.gt,.gu,.gv,.gw,.gx,.gy,.gz,.ha,.hb,.hc,.hd,.he,.hf,.hg,.hh,.hi,.hj,.hk,.hl,.hm,.hn,.ho,.hp,.hq,.hr,.hs,.ht,.hu,.hv,.hw,.hx,.hy,.hz,.ia,.ib,.ic,.id,.ie,.if,.ig,.ih{stroke-width:0px;}.ii{mask:url(#eu);}.ij{filter:url(#bh);}.ik{mask:url(#aw);}.il{mask:url(#bg);}.im{mask:url(#em);}.in{mask:url(#ak);}.gd{fill:#c5171a;}.io{mask:url(#cl);}.ge{fill:#e4e357;}.gf{fill:url(#fe);}.gf,.gl,.gm,.gr,.gt,.gw,.hb,.he,.hg,.hh,.hl,.hp,.hq,.hr,.hv,.hw,.ia,.ib,.ic,.if,.ih{mix-blend-mode:multiply;}.gg{fill:url(#dq);}.ip{mask:url(#i);}.iq{filter:url(#ar);}.gh{fill:url(#an);}.ir{filter:url(#ab);}.is{mask:url(#bx);}.gi{fill:#285325;}.it{mask:url(#cd);}.iu{mask:url(#q);}.iv{filter:url(#aj);}.gj{fill:url(#bu);}.gk{fill:#010101;}.iw{mask:url(#fo);}.ix{mask:url(#be);}.iy{mask:url(#cx);}.gl{fill:url(#w);}.gm{fill:url(#fm);}.gn{fill:url(#l);}.iz{fill:none;stroke:#010101;stroke-miterlimit:10;}.ja{mask:url(#ch);}.jb{mask:url(#bn);}.jc{mask:url(#ag);}.jd{filter:url(#fb);}.je{mask:url(#dw);}.jf{mask:url(#du);}.jg{filter:url(#cg);}.go{fill:url(#fz);}.jh{mask:url(#ai);}.ji{mask:url(#ac);}.gp{fill:url(#ex);}.gq{fill:url(#av);}.jj{mask:url(#dl);}.jk{mask:url(#ay);}.gr{fill:url(#eg);}.jl{filter:url(#et);}.gs{fill:url(#fy);}.jm{mask:url(#ao);}.gt{fill:url(#cb);}.jn{mask:url(#ey);}.jo{mask:url(#dj);}.jp{mask:url(#br);}.jq{mask:url(#db);}.jr{mask:url(#ee);}.gu{fill:url(#fx);}.js{filter:url(#co);}.jt{mask:url(#bz);}.gv{fill:url(#bl);}.gw{fill:url(#dy);}.gx{fill:url(#di);}.ju{mask:url(#bv);}.gy{fill:url(#dz);}.jv{mask:url(#y);}.gz{fill:#fff;}.jw{mask:url(#fi);}.jx{filter:url(#cw);}.ha{fill:url(#bm);}.jy{filter:url(#t);}.hb{fill:url(#cj);}.jz{filter:url(#fr);}.hc{fill:url(#fv);}.ka{mask:url(#n);}.hd{fill:url(#da);}.kb{mask:url(#dn);}.kc{mask:url(#es);}.he{fill:url(#ae);}.kd{mask:url(#aq);}.hf{fill:url(#d);}.ke{filter:url(#az);}.hg{fill:url(#eo);}.kf{mask:url(#bi);}.hh{fill:url(#dh);}.hi{fill:url(#eh);}.hj{fill:url(#af);}.kg{mask:url(#ec);}.kh{mask:url(#e);}.hk{fill:url(#ff);}.ki{mask:url(#ds);}.hl{fill:url(#bc);}.kj{mask:url(#ct);}.kk{filter:url(#fj);}.hm{fill:url(#bd);}.hn{fill:url(#dr);}.ho{fill:url(#fw);}.kl{mask:url(#as);}.km{filter:url(#h);}.hp{fill:url(#dp);}.hq{fill:url(#au);}.kn{mask:url(#ea);}.ko{mask:url(#ei);}.kp{mask:url(#fg);}.hr{fill:url(#cr);}.kq{filter:url(#bq);}.kr{filter:url(#by);}.hs{fill:url(#m);}.ks{mask:url(#fc);}.ht{fill:url(#cs);}.kt{mask:url(#cp);}.ku{mask:url(#cn);}.kv{mask:url(#fq);}.kw{filter:url(#ed);}.kx{mask:url(#fa);}.hu{fill:url(#ck);}.ky{mask:url(#aa);}.hv{fill:url(#cz);}.kz{mask:url(#fk);}.hw{fill:url(#ew);}.la{mask:url(#g);}.lb{mask:url(#s);}.hx{fill:#135d2b;}.lc{filter:url(#dm);}.ld{mask:url(#fs);}.le{mask:url(#df);}.lf{mask:url(#u);}.lg{mask:url(#ba);}.lh{mask:url(#cf);}.li{mask:url(#eq);}.hy{fill:url(#cc);}.hz{fill:url(#p);}.lj{mask:url(#bp);}.lk{mask:url(#cv);}.ia{fill:url(#am);}.ib{fill:url(#fu);}.ll{filter:url(#de);}.ic{fill:url(#k);}.id{fill:url(#x);}.ie{fill:url(#o);}.if{fill:url(#bt);}.ig{fill:url(#ep);}.lm{filter:url(#el);}.ih{fill:url(#bk);}.ln{mask:url(#dd);}</style><linearGradient id="d" x1="157.21" y1="23.39" x2="125.89" y2="83.54" gradientTransform="translate(-90.28 -72.32) rotate(6.93)" gradientUnits="userSpaceOnUse"><stop offset="0" stop-color="#1b1b1b"/><stop offset="1" stop-color="#fff"/></linearGradient><filter id="h" x="21.56" y="1.84" width="20.36" height="26.4" color-interpolation-filters="sRGB" filterUnits="userSpaceOnUse"><feFlood flood-color="#fff" result="bg"/><feBlend in="SourceGraphic" in2="bg"/></filter><filter id="j" x="21.56" y="-8042.43" width="20.36" height="32766" color-interpolation-filters="sRGB" filterUnits="userSpaceOnUse"><feFlood flood-color="#fff" result="bg"/><feBlend in="SourceGraphic" in2="bg"/></filter><mask id="i" x="21.56" y="-8042.43" width="20.36" height="32766" maskUnits="userSpaceOnUse"/><linearGradient id="k" x1="22.74" y1="-396.77" x2="-22.3" y2="-306.4" gradientTransform="translate(48 -303.48) scale(1 -1)" gradientUnits="userSpaceOnUse"><stop offset="0" stop-color="#fff"/><stop offset="1" stop-color="#000"/></linearGradient><mask id="g" x="21.56" y="1.84" width="20.36" height="26.4" maskUnits="userSpaceOnUse"><g class="km"><g class="ip"><rect class="ic" x="21.62" y="1.89" width="20.25" height="26.31" transform="translate(-.07 .14) rotate(-.25)"/></g></g></mask><linearGradient id="l" x1="22.74" y1="-396.77" x2="-22.3" y2="-306.4" gradientTransform="translate(48 -303.48) scale(1 -1)" gradientUnits="userSpaceOnUse"><stop offset="0" stop-color="#fff"/><stop offset="1" stop-color="#fff"/></linearGradient><mask id="e" x="21.56" y="1.84" width="20.36" height="26.4" maskUnits="userSpaceOnUse"><g id="f"><g class="la"><rect class="gn" x="21.62" y="1.89" width="20.25" height="26.31" transform="translate(-.07 .14) rotate(-.25)"/></g></g></mask><linearGradient id="m" x1="110.31" y1="134.47" x2="174.83" y2="134.47" gradientTransform="translate(-90.28 -72.32) rotate(6.93)" gradientUnits="userSpaceOnUse"><stop offset="0" stop-color="#e94649"/><stop offset=".46" stop-color="#f49624"/><stop offset="1" stop-color="#fac74f"/></linearGradient><linearGradient id="o" x1="141.19" y1="185.31" x2="141.19" y2="73.28" gradientTransform="translate(-106.92 -56.22)" gradientUnits="userSpaceOnUse"><stop offset="0" stop-color="#fff"/><stop offset=".12" stop-color="#fff" stop-opacity=".81"/><stop offset=".3" stop-color="#fff" stop-opacity=".57"/><stop offset=".48" stop-color="#fff" stop-opacity=".37"/><stop offset=".64" stop-color="#fff" stop-opacity=".21"/><stop offset=".78" stop-color="#fff" stop-opacity=".09"/><stop offset=".91" stop-color="#fff" stop-opacity=".02"/><stop offset="1" stop-color="#fff" stop-opacity="0"/></linearGradient><mask id="n" x="-2.93" y="13.77" width="74.4" height="118.61" maskUnits="userSpaceOnUse"><rect class="ie" x="3.61" y="17.06" width="61.32" height="112.03" transform="translate(9.07 -3.6) rotate(6.93)"/></mask><linearGradient id="p" x1="106.63" y1="92.65" x2="178.86" y2="92.65" xlink:href="#m"/><filter id="t" x="22.62" y="17.84" width="4.49" height="6.9" color-interpolation-filters="sRGB" filterUnits="userSpaceOnUse"><feFlood flood-color="#fff" result="bg"/><feBlend in="SourceGraphic" in2="bg"/></filter><filter id="v" x="22.62" y="-8042.43" width="4.49" height="32766" color-interpolation-filters="sRGB" filterUnits="userSpaceOnUse"><feFlood flood-color="#fff" result="bg"/><feBlend in="SourceGraphic" in2="bg"/></filter><mask id="u" x="22.62" y="-8042.43" width="4.49" height="32766" maskUnits="userSpaceOnUse"/><linearGradient id="w" x1="9325.57" y1="-8334.97" x2="9322.08" y2="-8493.23" gradientTransform="translate(630.64 -650.03) rotate(90) scale(.07 -.07)" gradientUnits="userSpaceOnUse"><stop offset="0" stop-color="#fff"/><stop offset=".52" stop-color="#000"/><stop offset="1" stop-color="#fff"/></linearGradient><mask id="s" x="22.62" y="17.84" width="4.49" height="6.9" maskUnits="userSpaceOnUse"><g class="jy"><g class="lf"><rect class="gl" x="21.61" y="19.42" width="6.5" height="3.73" transform="translate(.73 43.4) rotate(-83.07)"/></g></g></mask><linearGradient id="x" x1="9325.57" y1="-8334.97" x2="9322.08" y2="-8493.23" gradientTransform="translate(630.64 -650.03) rotate(90) scale(.07 -.07)" gradientUnits="userSpaceOnUse"><stop offset="0" stop-color="#fff"/><stop offset=".52" stop-color="#fff"/><stop offset="1" stop-color="#fff"/></linearGradient><mask id="q" x="22.62" y="17.84" width="4.49" height="6.9" maskUnits="userSpaceOnUse"><g id="r"><g class="lb"><rect class="id" x="21.61" y="19.42" width="6.5" height="3.73" transform="translate(.73 43.4) rotate(-83.07)"/></g></g></mask><filter id="ab" x="22.49" y="21.42" width="4.18" height="4.36" color-interpolation-filters="sRGB" filterUnits="userSpaceOnUse"><feFlood flood-color="#fff" result="bg"/><feBlend in="SourceGraphic" in2="bg"/></filter><filter id="ad" x="22.49" y="-8042.43" width="4.18" height="32766" color-interpolation-filters="sRGB" filterUnits="userSpaceOnUse"><feFlood flood-color="#fff" result="bg"/><feBlend in="SourceGraphic" in2="bg"/></filter><mask id="ac" x="22.49" y="-8042.43" width="4.18" height="32766" maskUnits="userSpaceOnUse"/><linearGradient id="ae" x1="9333.54" y1="-8288.73" x2="9320.03" y2="-8507.66" gradientTransform="translate(632.69 -647.72) rotate(90) scale(.07 -.07)" xlink:href="#k"/><mask id="aa" x="22.49" y="21.42" width="4.18" height="4.36" maskUnits="userSpaceOnUse"><g class="ir"><g class="ji"><rect class="he" x="22.61" y="21.73" width="3.94" height="3.73" transform="translate(-1.81 45.15) rotate(-83.07)"/></g></g></mask><linearGradient id="af" x1="9333.54" y1="-8288.73" x2="9320.03" y2="-8507.66" gradientTransform="translate(632.69 -647.72) rotate(90) scale(.07 -.07)" xlink:href="#l"/><mask id="y" x="22.49" y="21.42" width="4.18" height="4.36" maskUnits="userSpaceOnUse"><g id="z"><g class="ky"><rect class="hj" x="22.61" y="21.73" width="3.94" height="3.73" transform="translate(-1.81 45.15) rotate(-83.07)"/></g></g></mask><filter id="aj" x="11.62" y="21.49" width="6.42" height="9.97" color-interpolation-filters="sRGB" filterUnits="userSpaceOnUse"><feFlood flood-color="#fff" result="bg"/><feBlend in="SourceGraphic" in2="bg"/></filter><filter id="al" x="11.62" y="-8042.43" width="6.42" height="32766" color-interpolation-filters="sRGB" filterUnits="userSpaceOnUse"><feFlood flood-color="#fff" result="bg"/><feBlend in="SourceGraphic" in2="bg"/></filter><mask id="ak" x="11.62" y="-8042.43" width="6.42" height="32766" maskUnits="userSpaceOnUse"/><linearGradient id="am" x1="9196.83" y1="-8386.4" x2="9191.69" y2="-8618.9" gradientTransform="translate(626.98 -635.51) rotate(90) scale(.07 -.07)" xlink:href="#w"/><mask id="ai" x="11.62" y="21.49" width="6.42" height="9.97" maskUnits="userSpaceOnUse"><g class="iv"><g class="in"><rect class="ia" x="10.14" y="23.81" width="9.39" height="5.32" transform="translate(-13.24 38.01) rotate(-83.07)"/></g></g></mask><linearGradient id="an" x1="9196.83" y1="-8386.4" x2="9191.69" y2="-8618.9" gradientTransform="translate(626.98 -635.51) rotate(90) scale(.07 -.07)" xlink:href="#x"/><mask id="ag" x="11.62" y="21.49" width="6.42" height="9.97" maskUnits="userSpaceOnUse"><g id="ah"><g class="jh"><rect class="gh" x="10.14" y="23.81" width="9.39" height="5.32" transform="translate(-13.24 38.01) rotate(-83.07)"/></g></g></mask><filter id="ar" x="11.44" y="26.75" width="5.97" height="6.23" color-interpolation-filters="sRGB" filterUnits="userSpaceOnUse"><feFlood flood-color="#fff" result="bg"/><feBlend in="SourceGraphic" in2="bg"/></filter><filter id="at" x="11.44" y="-8042.43" width="5.97" height="32766" color-interpolation-filters="sRGB" filterUnits="userSpaceOnUse"><feFlood flood-color="#fff" result="bg"/><feBlend in="SourceGraphic" in2="bg"/></filter><mask id="as" x="11.44" y="-8042.43" width="5.97" height="32766" maskUnits="userSpaceOnUse"/><linearGradient id="au" x1="9208.53" y1="-8318.47" x2="9188.68" y2="-8640.11" gradientTransform="translate(629.98 -632.12) rotate(90) scale(.07 -.07)" xlink:href="#k"/><mask id="aq" x="11.44" y="26.75" width="5.97" height="6.23" maskUnits="userSpaceOnUse"><g class="iq"><g class="kl"><rect class="hq" x="11.61" y="27.21" width="5.63" height="5.32" transform="translate(-16.97 40.58) rotate(-83.07)"/></g></g></mask><linearGradient id="av" x1="9208.53" y1="-8318.47" x2="9188.68" y2="-8640.11" gradientTransform="translate(629.98 -632.12) rotate(90) scale(.07 -.07)" xlink:href="#l"/><mask id="ao" x="11.44" y="26.75" width="5.97" height="6.23" maskUnits="userSpaceOnUse"><g id="ap"><g class="kd"><rect class="gq" x="11.61" y="27.21" width="5.63" height="5.32" transform="translate(-16.97 40.58) rotate(-83.07)"/></g></g></mask><filter id="az" x="72.04" y="25.34" width="3.25" height="4.94" color-interpolation-filters="sRGB" filterUnits="userSpaceOnUse"><feFlood flood-color="#fff" result="bg"/><feBlend in="SourceGraphic" in2="bg"/></filter><filter id="bb" x="72.04" y="-8042.43" width="3.25" height="32766" color-interpolation-filters="sRGB" filterUnits="userSpaceOnUse"><feFlood flood-color="#fff" result="bg"/><feBlend in="SourceGraphic" in2="bg"/></filter><mask id="ba" x="72.04" y="-8042.43" width="3.25" height="32766" maskUnits="userSpaceOnUse"/><linearGradient id="bc" x1="10008.85" y1="-8366.75" x2="10006.4" y2="-8477.47" gradientTransform="translate(680.03 -692.74) rotate(90) scale(.07 -.07)" xlink:href="#w"/><mask id="ay" x="72.04" y="25.34" width="3.25" height="4.94" maskUnits="userSpaceOnUse"><g class="ke"><g class="lg"><rect class="hl" x="71.34" y="26.46" width="4.65" height="2.71" transform="translate(37.16 97.58) rotate(-83.07)"/></g></g></mask><linearGradient id="bd" x1="10008.85" y1="-8366.75" x2="10006.4" y2="-8477.47" gradientTransform="translate(680.03 -692.74) rotate(90) scale(.07 -.07)" xlink:href="#x"/><mask id="aw" x="72.04" y="25.34" width="3.25" height="4.94" maskUnits="userSpaceOnUse"><g id="ax"><g class="jk"><rect class="hm" x="71.34" y="26.46" width="4.65" height="2.71" transform="translate(37.16 97.58) rotate(-83.07)"/></g></g></mask><filter id="bh" x="71.95" y="27.85" width="3.03" height="3.16" color-interpolation-filters="sRGB" filterUnits="userSpaceOnUse"><feFlood flood-color="#fff" result="bg"/><feBlend in="SourceGraphic" in2="bg"/></filter><filter id="bj" x="71.95" y="-8042.43" width="3.03" height="32766" color-interpolation-filters="sRGB" filterUnits="userSpaceOnUse"><feFlood flood-color="#fff" result="bg"/><feBlend in="SourceGraphic" in2="bg"/></filter><mask id="bi" x="71.95" y="-8042.43" width="3.03" height="32766" maskUnits="userSpaceOnUse"/><linearGradient id="bk" x1="10014.43" y1="-8334.41" x2="10004.97" y2="-8487.57" gradientTransform="translate(681.47 -691.12) rotate(90) scale(.07 -.07)" xlink:href="#k"/><mask id="bg" x="71.95" y="27.85" width="3.03" height="3.16" maskUnits="userSpaceOnUse"><g class="ij"><g class="kf"><rect class="ih" x="72.04" y="28.08" width="2.85" height="2.71" transform="translate(35.39 98.81) rotate(-83.07)"/></g></g></mask><linearGradient id="bl" x1="10014.43" y1="-8334.41" x2="10004.97" y2="-8487.57" gradientTransform="translate(681.47 -691.12) rotate(90) scale(.07 -.07)" xlink:href="#l"/><mask id="be" x="71.95" y="27.85" width="3.03" height="3.16" maskUnits="userSpaceOnUse"><g id="bf"><g class="il"><rect class="gv" x="72.04" y="28.08" width="2.85" height="2.71" transform="translate(35.39 98.81) rotate(-83.07)"/></g></g></mask><linearGradient id="bm" x1="19509.26" y1="-10555.18" x2="19515.75" y2="-10378.28" gradientTransform="translate(-533.45 -1479.63) rotate(40.5) scale(.07 -.07)" gradientUnits="userSpaceOnUse"><stop offset="0" stop-color="#358c35"/><stop offset="1" stop-color="#e4e357"/></linearGradient><filter id="bq" x="39.96" y="-.16" width="11.24" height="10.58" color-interpolation-filters="sRGB" filterUnits="userSpaceOnUse"><feFlood flood-color="#fff" result="bg"/><feBlend in="SourceGraphic" in2="bg"/></filter><filter id="bs" x="39.96" y="-8042.43" width="11.24" height="32766" color-interpolation-filters="sRGB" filterUnits="userSpaceOnUse"><feFlood flood-color="#fff" result="bg"/><feBlend in="SourceGraphic" in2="bg"/></filter><mask id="br" x="39.96" y="-8042.43" width="11.24" height="32766" maskUnits="userSpaceOnUse"/><linearGradient id="bt" x1="19408.14" y1="-10242.27" x2="19526.07" y2="-10497.14" gradientTransform="translate(798.55 -1399.44) rotate(90) scale(.07 -.07)" xlink:href="#k"/><mask id="bp" x="39.96" y="-.16" width="11.24" height="10.58" maskUnits="userSpaceOnUse"><g class="kq"><g class="jp"><rect class="if" x="43.18" y="-.22" width="4.78" height="10.69" transform="translate(12.08 36.45) rotate(-49.5)"/></g></g></mask><linearGradient id="bu" x1="19408.14" y1="-10242.27" x2="19526.07" y2="-10497.14" gradientTransform="translate(798.55 -1399.44) rotate(90) scale(.07 -.07)" xlink:href="#l"/><mask id="bn" x="39.96" y="-.16" width="11.24" height="10.58" maskUnits="userSpaceOnUse"><g id="bo"><g class="lj"><rect class="gj" x="43.18" y="-.22" width="4.78" height="10.69" transform="translate(12.08 36.45) rotate(-49.5)"/></g></g></mask><filter id="by" x="38.69" y="3.69" width="10.89" height="11" color-interpolation-filters="sRGB" filterUnits="userSpaceOnUse"><feFlood flood-color="#fff" result="bg"/><feBlend in="SourceGraphic" in2="bg"/></filter><filter id="ca" x="38.69" y="-8042.43" width="10.89" height="32766" color-interpolation-filters="sRGB" filterUnits="userSpaceOnUse"><feFlood flood-color="#fff" result="bg"/><feBlend in="SourceGraphic" in2="bg"/></filter><mask id="bz" x="38.69" y="-8042.43" width="10.89" height="32766" maskUnits="userSpaceOnUse"/><linearGradient id="cb" x1="19723.09" y1="-10762.96" x2="19476.49" y2="-10445.9" gradientTransform="translate(801.13 -1396.92) rotate(90) scale(.07 -.07)" xlink:href="#k"/><mask id="bx" x="38.69" y="3.69" width="10.89" height="11" maskUnits="userSpaceOnUse"><g class="kr"><g class="jt"><rect class="gt" x="40.01" y="5.55" width="8.24" height="7.28" transform="translate(8.48 36.78) rotate(-49.5)"/></g></g></mask><linearGradient id="cc" x1="19723.09" y1="-10762.96" x2="19476.49" y2="-10445.9" gradientTransform="translate(801.13 -1396.92) rotate(90) scale(.07 -.07)" xlink:href="#l"/><mask id="bv" x="38.69" y="3.69" width="10.89" height="11" maskUnits="userSpaceOnUse"><g id="bw"><g class="is"><rect class="hy" x="40.01" y="5.55" width="8.24" height="7.28" transform="translate(8.48 36.78) rotate(-49.5)"/></g></g></mask><filter id="cg" x="42.51" y="8.71" width="5.98" height="6.2" color-interpolation-filters="sRGB" filterUnits="userSpaceOnUse"><feFlood flood-color="#fff" result="bg"/><feBlend in="SourceGraphic" in2="bg"/></filter><filter id="ci" x="42.51" y="-8042.43" width="5.98" height="32766" color-interpolation-filters="sRGB" filterUnits="userSpaceOnUse"><feFlood flood-color="#fff" result="bg"/><feBlend in="SourceGraphic" in2="bg"/></filter><mask id="ch" x="42.51" y="-8042.43" width="5.98" height="32766" maskUnits="userSpaceOnUse"/><linearGradient id="cj" x1="19739.4" y1="-10750.27" x2="19492.81" y2="-10433.21" gradientTransform="translate(803.6 -1397.05) rotate(90) scale(.07 -.07)" xlink:href="#k"/><mask id="cf" x="42.51" y="8.71" width="5.98" height="6.2" maskUnits="userSpaceOnUse"><g class="jg"><g class="ja"><rect class="hb" x="42.85" y="10.14" width="5.3" height="3.33" transform="translate(6.97 38.74) rotate(-49.5)"/></g></g></mask><linearGradient id="ck" x1="19739.4" y1="-10750.27" x2="19492.81" y2="-10433.21" gradientTransform="translate(803.6 -1397.05) rotate(90) scale(.07 -.07)" xlink:href="#l"/><mask id="cd" x="42.51" y="8.71" width="5.98" height="6.2" maskUnits="userSpaceOnUse"><g id="ce"><g class="lh"><rect class="hu" x="42.85" y="10.14" width="5.3" height="3.33" transform="translate(6.97 38.74) rotate(-49.5)"/></g></g></mask><filter id="co" x="43.03" y="3.35" width="1.54" height="1.61" color-interpolation-filters="sRGB" filterUnits="userSpaceOnUse"><feFlood flood-color="#fff" result="bg"/><feBlend in="SourceGraphic" in2="bg"/></filter><filter id="cq" x="43.03" y="-8042.43" width="1.54" height="32766" color-interpolation-filters="sRGB" filterUnits="userSpaceOnUse"><feFlood flood-color="#fff" result="bg"/><feBlend in="SourceGraphic" in2="bg"/></filter><mask id="cp" x="43.03" y="-8042.43" width="1.54" height="32766" maskUnits="userSpaceOnUse"/><linearGradient id="cr" x1="19480.75" y1="-10447.34" x2="19480.02" y2="-10480.3" gradientTransform="translate(797.19 -1398.43) rotate(90) scale(.07 -.07)" xlink:href="#w"/><mask id="cn" x="43.03" y="3.35" width="1.54" height="1.61" maskUnits="userSpaceOnUse"><g class="js"><g class="kt"><rect class="hr" x="43.09" y="3.74" width="1.4" height=".83" transform="translate(12.19 34.76) rotate(-49.5)"/></g></g></mask><linearGradient id="cs" x1="19480.75" y1="-10447.34" x2="19480.02" y2="-10480.3" gradientTransform="translate(797.19 -1398.43) rotate(90) scale(.07 -.07)" xlink:href="#x"/><mask id="cl" x="43.03" y="3.35" width="1.54" height="1.61" maskUnits="userSpaceOnUse"><g id="cm"><g class="ku"><rect class="ht" x="43.09" y="3.74" width="1.4" height=".83" transform="translate(12.19 34.76) rotate(-49.5)"/></g></g></mask><filter id="cw" x="42.88" y="3.92" width="1.2" height="1.2" color-interpolation-filters="sRGB" filterUnits="userSpaceOnUse"><feFlood flood-color="#fff" result="bg"/><feBlend in="SourceGraphic" in2="bg"/></filter><filter id="cy" x="42.88" y="-8042.43" width="1.2" height="32766" color-interpolation-filters="sRGB" filterUnits="userSpaceOnUse"><feFlood flood-color="#fff" result="bg"/><feBlend in="SourceGraphic" in2="bg"/></filter><mask id="cx" x="42.88" y="-8042.43" width="1.2" height="32766" maskUnits="userSpaceOnUse"/><linearGradient id="cz" x1="19482.41" y1="-10437.71" x2="19479.6" y2="-10483.3" gradientTransform="translate(797.35 -1398.06) rotate(90) scale(.07 -.07)" xlink:href="#k"/><mask id="cv" x="42.88" y="3.92" width="1.2" height="1.2" maskUnits="userSpaceOnUse"><g class="jx"><g class="iy"><rect class="hv" x="43.05" y="4.11" width=".87" height=".83" transform="translate(11.8 34.65) rotate(-49.5)"/></g></g></mask><linearGradient id="da" x1="19482.41" y1="-10437.71" x2="19479.6" y2="-10483.3" gradientTransform="translate(797.35 -1398.06) rotate(90) scale(.07 -.07)" xlink:href="#l"/><mask id="ct" x="42.88" y="3.92" width="1.2" height="1.2" maskUnits="userSpaceOnUse"><g id="cu"><g class="lk"><rect class="hd" x="43.05" y="4.11" width=".87" height=".83" transform="translate(11.8 34.65) rotate(-49.5)"/></g></g></mask><filter id="de" x="42.84" y="5.71" width="1.12" height="1.16" color-interpolation-filters="sRGB" filterUnits="userSpaceOnUse"><feFlood flood-color="#fff" result="bg"/><feBlend in="SourceGraphic" in2="bg"/></filter><filter id="dg" x="42.84" y="-8042.43" width="1.12" height="32766" color-interpolation-filters="sRGB" filterUnits="userSpaceOnUse"><feFlood flood-color="#fff" result="bg"/><feBlend in="SourceGraphic" in2="bg"/></filter><mask id="df" x="42.84" y="-8042.43" width="1.12" height="32766" maskUnits="userSpaceOnUse"/><linearGradient id="dh" x1="19495.71" y1="-10478.56" x2="19495.2" y2="-10501.29" gradientTransform="translate(798.67 -1397.38) rotate(90) scale(.07 -.07)" xlink:href="#w"/><mask id="dd" x="42.84" y="5.71" width="1.12" height="1.16" maskUnits="userSpaceOnUse"><g class="ll"><g class="le"><rect class="hh" x="42.9" y="5.99" width="1.01" height=".61" transform="translate(10.43 35.21) rotate(-49.5)"/></g></g></mask><linearGradient id="di" x1="19495.71" y1="-10478.56" x2="19495.2" y2="-10501.29" gradientTransform="translate(798.67 -1397.38) rotate(90) scale(.07 -.07)" xlink:href="#x"/><mask id="db" x="42.84" y="5.71" width="1.12" height="1.16" maskUnits="userSpaceOnUse"><g id="dc"><g class="ln"><rect class="gx" x="42.9" y="5.99" width="1.01" height=".61" transform="translate(10.43 35.21) rotate(-49.5)"/></g></g></mask><filter id="dm" x="42.74" y="6.1" width=".88" height=".88" color-interpolation-filters="sRGB" filterUnits="userSpaceOnUse"><feFlood flood-color="#fff" result="bg"/><feBlend in="SourceGraphic" in2="bg"/></filter><filter id="do" x="42.74" y="-8042.43" width=".88" height="32766" color-interpolation-filters="sRGB" filterUnits="userSpaceOnUse"><feFlood flood-color="#fff" result="bg"/><feBlend in="SourceGraphic" in2="bg"/></filter><mask id="dn" x="42.74" y="-8042.43" width=".88" height="32766" maskUnits="userSpaceOnUse"/><linearGradient id="dp" x1="19496.85" y1="-10471.91" x2="19494.91" y2="-10503.36" gradientTransform="translate(798.79 -1397.13) rotate(90) scale(.07 -.07)" xlink:href="#k"/><mask id="dl" x="42.74" y="6.1" width=".88" height=".88" maskUnits="userSpaceOnUse"><g class="lc"><g class="kb"><rect class="hp" x="42.86" y="6.24" width=".64" height=".61" transform="translate(10.16 35.13) rotate(-49.5)"/></g></g></mask><linearGradient id="dq" x1="19496.85" y1="-10471.91" x2="19494.91" y2="-10503.36" gradientTransform="translate(798.79 -1397.13) rotate(90) scale(.07 -.07)" xlink:href="#l"/><mask id="dj" x="42.74" y="6.1" width=".88" height=".88" maskUnits="userSpaceOnUse"><g id="dk"><g class="jj"><rect class="gg" x="42.86" y="6.24" width=".64" height=".61" transform="translate(10.16 35.13) rotate(-49.5)"/></g></g></mask><linearGradient id="dr" x1="14771.22" y1="-11133.35" x2="14774.39" y2="-11047.04" gradientTransform="translate(1372.27 -132.82) rotate(-149.41) scale(.07)" xlink:href="#bm"/><filter id="dv" x="47.75" y="10.67" width="5.68" height="4.66" color-interpolation-filters="sRGB" filterUnits="userSpaceOnUse"><feFlood flood-color="#fff" result="bg"/><feBlend in="SourceGraphic" in2="bg"/></filter><filter id="dx" x="47.75" y="-8042.43" width="5.68" height="32766" color-interpolation-filters="sRGB" filterUnits="userSpaceOnUse"><feFlood flood-color="#fff" result="bg"/><feBlend in="SourceGraphic" in2="bg"/></filter><mask id="dw" x="47.75" y="-8042.43" width="5.68" height="32766" maskUnits="userSpaceOnUse"/><linearGradient id="dy" x1="14721.88" y1="-10980.68" x2="14779.43" y2="-11105.04" gradientTransform="translate(848.78 1076.49) rotate(-90) scale(.07)" xlink:href="#k"/><mask id="du" x="47.75" y="10.67" width="5.68" height="4.66" maskUnits="userSpaceOnUse"><g class="gb"><g class="je"><rect class="gw" x="49.42" y="10.4" width="2.33" height="5.22" transform="translate(13.65 49.93) rotate(-59.41)"/></g></g></mask><linearGradient id="dz" x1="14721.88" y1="-10980.68" x2="14779.43" y2="-11105.04" gradientTransform="translate(848.78 1076.49) rotate(-90) scale(.07)" xlink:href="#l"/><mask id="ds" x="47.75" y="10.67" width="5.68" height="4.66" maskUnits="userSpaceOnUse"><g id="dt"><g class="jf"><rect class="gy" x="49.42" y="10.4" width="2.33" height="5.22" transform="translate(13.65 49.93) rotate(-59.41)"/></g></g></mask><filter id="ed" x="46.39" y="11.68" width="5.11" height="5.27" color-interpolation-filters="sRGB" filterUnits="userSpaceOnUse"><feFlood flood-color="#fff" result="bg"/><feBlend in="SourceGraphic" in2="bg"/></filter><filter id="ef" x="46.39" y="-8042.43" width="5.11" height="32766" color-interpolation-filters="sRGB" filterUnits="userSpaceOnUse"><feFlood flood-color="#fff" result="bg"/><feBlend in="SourceGraphic" in2="bg"/></filter><mask id="ee" x="46.39" y="-8042.43" width="5.11" height="32766" maskUnits="userSpaceOnUse"/><linearGradient id="eg" x1="14875.56" y1="-11234.74" x2="14755.23" y2="-11080.04" gradientTransform="translate(849.09 1078.55) rotate(-90) scale(.07)" xlink:href="#k"/><mask id="ec" x="46.39" y="11.68" width="5.11" height="5.27" maskUnits="userSpaceOnUse"><g class="kw"><g class="jr"><rect class="gr" x="46.93" y="12.54" width="4.02" height="3.55" transform="translate(11.71 49.16) rotate(-59.41)"/></g></g></mask><linearGradient id="eh" x1="14875.56" y1="-11234.74" x2="14755.23" y2="-11080.04" gradientTransform="translate(849.09 1078.55) rotate(-90) scale(.07)" xlink:href="#l"/><mask id="ea" x="46.39" y="11.68" width="5.11" height="5.27" maskUnits="userSpaceOnUse"><g id="eb"><g class="kg"><rect class="hi" x="46.93" y="12.54" width="4.02" height="3.55" transform="translate(11.71 49.16) rotate(-59.41)"/></g></g></mask><filter id="el" x="46.16" y="12.57" width="2.72" height="3.06" color-interpolation-filters="sRGB" filterUnits="userSpaceOnUse"><feFlood flood-color="#fff" result="bg"/><feBlend in="SourceGraphic" in2="bg"/></filter><filter id="en" x="46.16" y="-8042.43" width="2.72" height="32766" color-interpolation-filters="sRGB" filterUnits="userSpaceOnUse"><feFlood flood-color="#fff" result="bg"/><feBlend in="SourceGraphic" in2="bg"/></filter><mask id="em" x="46.16" y="-8042.43" width="2.72" height="32766" maskUnits="userSpaceOnUse"/><linearGradient id="eo" x1="14883.52" y1="-11228.55" x2="14763.19" y2="-11073.85" gradientTransform="translate(848.2 1079.67) rotate(-90) scale(.07)" xlink:href="#k"/><mask id="ek" x="46.16" y="12.57" width="2.72" height="3.06" maskUnits="userSpaceOnUse"><g class="lm"><g class="im"><rect class="hg" x="46.22" y="13.28" width="2.59" height="1.63" transform="translate(11.2 47.82) rotate(-59.41)"/></g></g></mask><linearGradient id="ep" x1="14883.52" y1="-11228.55" x2="14763.19" y2="-11073.85" gradientTransform="translate(848.2 1079.67) rotate(-90) scale(.07)" xlink:href="#l"/><mask id="ei" x="46.16" y="12.57" width="2.72" height="3.06" maskUnits="userSpaceOnUse"><g id="ej"><g class="ga"><rect class="ig" x="46.22" y="13.28" width="2.59" height="1.63" transform="translate(11.2 47.82) rotate(-59.41)"/></g></g></mask><filter id="et" x="52.72" y="12.92" width=".41" height=".57" color-interpolation-filters="sRGB" filterUnits="userSpaceOnUse"><feFlood flood-color="#fff" result="bg"/><feBlend in="SourceGraphic" in2="bg"/></filter><filter id="ev" x="52.72" y="-8042.43" width=".41" height="32766" color-interpolation-filters="sRGB" filterUnits="userSpaceOnUse"><feFlood flood-color="#fff" result="bg"/><feBlend in="SourceGraphic" in2="bg"/></filter><mask id="eu" x="52.72" y="-8042.43" width=".41" height="32766" maskUnits="userSpaceOnUse"/><linearGradient id="ew" x1="19920.34" y1="-8849.84" x2="19920.07" y2="-8862.04" gradientTransform="translate(690.55 1447.46) rotate(-90) scale(.07)" xlink:href="#w"/><mask id="es" x="52.72" y="12.92" width=".41" height=".57" maskUnits="userSpaceOnUse"><g class="jl"><g class="ii"><rect class="hw" x="52.67" y="13.05" width=".52" height=".31" transform="translate(29.01 62.24) rotate(-78.01)"/></g></g></mask><linearGradient id="ex" x1="19920.34" y1="-8849.84" x2="19920.07" y2="-8862.04" gradientTransform="translate(690.55 1447.46) rotate(-90) scale(.07)" xlink:href="#x"/><mask id="eq" x="52.72" y="12.92" width=".41" height=".57" maskUnits="userSpaceOnUse"><g id="er"><g class="kc"><rect class="gp" x="52.67" y="13.05" width=".52" height=".31" transform="translate(29.01 62.24) rotate(-78.01)"/></g></g></mask><filter id="fb" x="52.71" y="13.19" width=".37" height=".38" color-interpolation-filters="sRGB" filterUnits="userSpaceOnUse"><feFlood flood-color="#fff" result="bg"/><feBlend in="SourceGraphic" in2="bg"/></filter><filter id="fd" x="52.71" y="-8042.43" width=".37" height="32766" color-interpolation-filters="sRGB" filterUnits="userSpaceOnUse"><feFlood flood-color="#fff" result="bg"/><feBlend in="SourceGraphic" in2="bg"/></filter><mask id="fc" x="52.71" y="-8042.43" width=".37" height="32766" maskUnits="userSpaceOnUse"/><linearGradient id="fe" x1="19920.96" y1="-8846.28" x2="19919.91" y2="-8863.15" gradientTransform="translate(690.69 1447.64) rotate(-90) scale(.07)" xlink:href="#k"/><mask id="fa" x="52.71" y="13.19" width=".37" height=".38" maskUnits="userSpaceOnUse"><g class="jd"><g class="ks"><rect class="gf" x="52.73" y="13.23" width=".32" height=".31" transform="translate(28.81 62.34) rotate(-78.01)"/></g></g></mask><linearGradient id="ff" x1="19920.96" y1="-8846.28" x2="19919.91" y2="-8863.15" gradientTransform="translate(690.69 1447.64) rotate(-90) scale(.07)" xlink:href="#l"/><mask id="ey" x="52.71" y="13.19" width=".37" height=".38" maskUnits="userSpaceOnUse"><g id="ez"><g class="kx"><rect class="hk" x="52.73" y="13.23" width=".32" height=".31" transform="translate(28.81 62.34) rotate(-78.01)"/></g></g></mask><filter id="fj" x="52.24" y="13.6" width=".3" height=".41" color-interpolation-filters="sRGB" filterUnits="userSpaceOnUse"><feFlood flood-color="#fff" result="bg"/><feBlend in="SourceGraphic" in2="bg"/></filter><filter id="fl" x="52.24" y="-8042.43" width=".3" height="32766" color-interpolation-filters="sRGB" filterUnits="userSpaceOnUse"><feFlood flood-color="#fff" result="bg"/><feBlend in="SourceGraphic" in2="bg"/></filter><mask id="fk" x="52.24" y="-8042.43" width=".3" height="32766" maskUnits="userSpaceOnUse"/><linearGradient id="fm" x1="19925.87" y1="-8861.39" x2="19925.69" y2="-8869.81" gradientTransform="translate(690.71 1448.46) rotate(-90) scale(.07)" xlink:href="#w"/><mask id="fi" x="52.24" y="13.6" width=".3" height=".41" maskUnits="userSpaceOnUse"><g class="kk"><g class="kz"><rect class="gm" x="52.2" y="13.69" width=".37" height=".23" transform="translate(28 62.18) rotate(-78.01)"/></g></g></mask><linearGradient id="fn" x1="19925.87" y1="-8861.39" x2="19925.69" y2="-8869.81" gradientTransform="translate(690.71 1448.46) rotate(-90) scale(.07)" xlink:href="#x"/><mask id="fg" x="52.24" y="13.6" width=".3" height=".41" maskUnits="userSpaceOnUse"><g id="fh"><g class="jw"><rect class="gc" x="52.2" y="13.69" width=".37" height=".23" transform="translate(28 62.18) rotate(-78.01)"/></g></g></mask><filter id="fr" x="52.23" y="13.79" width=".27" height=".28" color-interpolation-filters="sRGB" filterUnits="userSpaceOnUse"><feFlood flood-color="#fff" result="bg"/><feBlend in="SourceGraphic" in2="bg"/></filter><filter id="ft" x="52.23" y="-8042.43" width=".27" height="32766" color-interpolation-filters="sRGB" filterUnits="userSpaceOnUse"><feFlood flood-color="#fff" result="bg"/><feBlend in="SourceGraphic" in2="bg"/></filter><mask id="fs" x="52.23" y="-8042.43" width=".27" height="32766" maskUnits="userSpaceOnUse"/><linearGradient id="fu" x1="19926.3" y1="-8858.94" x2="19925.58" y2="-8870.57" gradientTransform="translate(690.81 1448.58) rotate(-90) scale(.07)" xlink:href="#k"/><mask id="fq" x="52.23" y="13.79" width=".27" height=".28" maskUnits="userSpaceOnUse"><g class="jz"><g class="ld"><rect class="ib" x="52.25" y="13.81" width=".24" height=".23" transform="translate(27.86 62.25) rotate(-78.01)"/></g></g></mask><linearGradient id="fv" x1="19926.3" y1="-8858.94" x2="19925.58" y2="-8870.57" gradientTransform="translate(690.81 1448.58) rotate(-90) scale(.07)" xlink:href="#l"/><mask id="fo" x="52.23" y="13.79" width=".27" height=".28" maskUnits="userSpaceOnUse"><g id="fp"><g class="kv"><rect class="hc" x="52.25" y="13.81" width=".24" height=".23" transform="translate(27.86 62.25) rotate(-78.01)"/></g></g></mask><linearGradient id="fw" x1="65.93" y1="70.45" x2="115.33" y2="70.45" gradientUnits="userSpaceOnUse"><stop offset="0" stop-color="#e94649"/><stop offset=".14" stop-color="#ec5d3e"/><stop offset=".33" stop-color="#ef7632"/><stop offset=".54" stop-color="#f2872a"/><stop offset=".75" stop-color="#f39225"/><stop offset="1" stop-color="#f49624"/></linearGradient><linearGradient id="fx" x1="110.4" y1="70.25" x2="158.18" y2="70.25" gradientUnits="userSpaceOnUse"><stop offset="0" stop-color="#f59c27"/><stop offset="1" stop-color="#f49624"/></linearGradient><linearGradient id="fy" x1="154.6" y1="54.95" x2="215.4" y2="54.95" xlink:href="#fx"/><linearGradient id="fz" x1="192.29" y1="85.31" x2="247.87" y2="85.31" xlink:href="#fx"/></defs><g id="c"><path class="hf" d="M43.36,26.93c-1.19.16-2.36.4-3.51.7l-3.42-12.77-1.8-6.71c-.13-.49-.51-.87-.99-1.01l-12.03-3.45.98-3.44,13.21,3.79c.96.28,1.71,1.04,1.97,2l2.65,9.92,2.93,10.96Z"/><g class="kh"><path class="gk" d="M39.71,26.99l-5.08-18.84c-.13-.49-.51-.87-.99-1.01l-12.03-3.45.49-1.72,12.71,3.64c.59.17,1.04.63,1.2,1.22l5.61,20.21s-.72-.02-1.92-.06Z"/></g><path class="hs" d="M64.58,101.19c-1.19,4.77-3.91,9.06-7.2,12.72-3.83,4.25-8.52,7.78-13.79,10-13.74,5.78-31.66.95-39.98-11.73C1.44,108.88.13,105.06,0,101.11c-.16-5.47,1.74-10.8,4.4-15.5,1.38-2.44,3-4.75,4.76-6.94.84-1.04,1.71-2.05,2.62-3.03.72-.78,2.28-1.81,2.71-2.75-2.22,4.85-3.51,10.54-3.35,15.87.14,4.61,1.7,9.27,5.26,12.36,6.62,5.73,19.34,6.55,27.24,3.4,4.22-1.68,7.92-5.26,8.68-9.74.36-2.12.01-4.41-1.25-6.15-2.01-2.76-5.55-3.39-8.58-4.43-3.85-1.33-7.63-2.83-11.2-4.82-5.11-2.85-9.93-6.87-11.89-12.39-.03-.09-.06-.17-.09-.25,0,0,0,0,0,0-1.23-3.66-1.1-7.7-.1-11.43,2.69-10.06,10.5-19.5,20.59-22.71,4.59-1.47,9.61-1.58,14.27-.31,3.58.97,7,2.79,9.48,5.56,1.59,1.78,2.8,4.02,2.84,6.41.02,1.16-1.15,4.59-2.23,7.54,0,0,0,0,0,0-.71,1.92-1.39,3.64-1.69,4.4-.88,2.22-1.84,4.43-2.64,6.68-1.47,4.16-1.83,8.53-.27,12.71-.1-.27-2.13-.77-2.41-.89-1.61-.66-3.16-1.43-4.64-2.35-2.86-1.77-5.79-3.92-7.05-7.17-2.39-6.13,3.53-11.16,3.41-17.25-.05-2.71-1.84-4.49-4.59-3.76-3.37.9-17.14,14.74,1.3,28.25,3.71,2.72,7.39,5.47,11.03,8.28,6.61,5.12,10.07,12.06,7.96,20.48Z"/><g class="ka"><path class="gd" d="M27.48,122.29c-8.64-1.05-16.37-5.61-20.7-12.2-1.85-2.82-2.88-5.96-2.97-9.09-.12-3.96,1.07-8.27,3.52-12.81,0,.23,0,.46.01.69.19,6.25,2.53,11.62,6.58,15.12,3.55,3.07,8.75,5.16,14.65,5.87s11.83.05,16.49-1.81c5.87-2.34,10.1-7.19,11.02-12.64.56-3.29-.15-6.58-1.93-9.03-2.39-3.28-5.96-4.39-8.83-5.28-.56-.17-1.08-.34-1.58-.51-4.43-1.53-7.7-2.94-10.59-4.55-5.36-2.98-8.77-6.46-10.15-10.33,0,0-.05-.14-.06-.19,0,0,0-.02,0-.03-1.15-3.43-.65-6.91-.03-9.23,1.19-4.44,3.57-8.84,6.7-12.38,3.27-3.7,7.2-6.35,11.37-7.69,2.91-.93,6.06-1.22,9.13-.85,1.01.12,2.01.32,2.98.58,2.22.6,5.34,1.86,7.64,4.43,1.15,1.29,1.81,2.64,1.86,3.83-.04.29-.31,1.69-1.97,6.18-.01.03-.02.06-.04.09-.49,1.33-1.06,2.82-1.65,4.31-.29.73-.59,1.47-.88,2.19-.61,1.49-1.24,3.04-1.81,4.62-.93,2.62-1.43,5.18-1.5,7.65-.08-.05-.15-.09-.23-.14-2.36-1.46-4.66-3.11-5.51-5.31-.77-1.97-.03-3.84,1.34-6.99,1.13-2.59,2.4-5.53,2.34-8.95-.08-4.1-2.61-7.16-6.3-7.61-.99-.12-2.02-.04-3.07.24-3.54.94-9.29,6.64-10.64,13.78-1.01,5.37.02,13.42,10.67,21.22,4.12,3.02,7.7,5.7,10.95,8.22,5.97,4.62,8.19,10.18,6.6,16.55-.93,3.72-3.06,7.46-6.34,11.09-3.61,4.01-7.91,7.13-12.44,9.04-4.43,1.86-9.49,2.52-14.62,1.9Z"/></g><path class="hz" d="M70.54,40.46c-.65-2.02-1.81-3.98-3.43-5.79-2.93-3.27-7-5.68-11.78-6.98-1.37-.37-2.78-.65-4.2-.82-2.58-.31-5.21-.29-7.78.07-1.19.16-2.36.4-3.51.7-.49.13-.98.27-1.47.43-11.15,3.55-20.47,13.77-23.75,26.02-.2.74-.36,1.48-.5,2.21C7.61,39.54,6.04,18.95,6.04,18.95c0,0,6.22-10.16,30.39-4.08,1.28.32,2.61.69,4,1.11,1.71.52,3.5,1.11,5.38,1.78,3.85,1.39,8.06,3.13,12.65,5.28,9.45,3.68,14.1-.04,17.06-4.44h0c5.71,6.3.68,13.13-4.97,21.86Z"/><path class="iz" d="M19.39,66.83s-.04-.06-.06-.09"/><path class="gd" d="M75.51,18.6c-2.97,4.4-7.61,8.12-17.06,4.44-4.59-2.16-8.79-3.89-12.65-5.28,2.42-.92,21.78-7.91,29.71.84Z"/><g class="iu"><path class="gz" d="M25.23,18.23c.93.11,1.52,1.58,1.31,3.27s-1.13,2.97-2.06,2.86-1.52-1.58-1.31-3.27,1.13-2.97,2.06-2.86Z"/></g><g class="jv"><path class="gd" d="M26.46,22.01c0,.17-.02.35-.04.52-.21,1.69-1.13,2.97-2.06,2.86s-1.52-1.58-1.31-3.27c.02-.18.05-.35.09-.52-.04,1.46.52,2.64,1.35,2.74s1.66-.91,1.97-2.34Z"/></g><g class="jc"><path class="gz" d="M15.38,21.98c1.37.17,2.23,2.32,1.93,4.8s-1.66,4.36-3.03,4.2-2.23-2.32-1.93-4.8,1.66-4.36,3.03-4.2Z"/></g><g class="jm"><path class="gd" d="M17.18,27.53c0,.25-.03.51-.06.77-.3,2.48-1.66,4.36-3.03,4.2s-2.23-2.32-1.93-4.8c.03-.26.07-.51.13-.76-.06,2.15.76,3.88,1.99,4.03s2.44-1.34,2.9-3.44h0Z"/></g><g class="ik"><path class="gz" d="M73.93,25.67c.65.08,1.06,1.1.92,2.29s-.79,2.08-1.44,2-1.06-1.1-.92-2.29.79-2.08,1.44-2Z"/></g><g class="ix"><path class="gd" d="M74.78,28.32c0,.12-.01.24-.03.37-.14,1.18-.79,2.08-1.44,2s-1.06-1.1-.92-2.29c.02-.12.04-.24.06-.36-.03,1.02.36,1.85.95,1.92s1.16-.64,1.38-1.64h0Z"/></g><path class="ha" d="M44.47,14.34C36.32,10.46,43.57,4.22,43,0c5.93,3.91,7.44,11.91,1.47,14.34Z"/><g class="jb"><path class="ge" d="M42.74,2.28c.24-.8.36-1.57.27-2.28,3.92,2.59,5.91,6.96,5.08,10.34.02-.21.46-4.8-5.34-8.06h0Z"/></g><path class="gi" d="M44.47,14.34c-.57-.27-1.05-.55-1.48-.84,3.89-5.15,2.09-8.84,2.09-8.84,2.31,4.23-.61,9.68-.61,9.68h0Z"/><g class="ju"><path class="gi" d="M45.08,4.66c1.04,4.78-4.14,6.49-4.25,2.88-.64,2.48-.3,4.91,3.63,6.78-.56-.27-1.04-.54-1.46-.83,3.89-5.15,2.09-8.84,2.09-8.84h0Z"/></g><g class="it"><path class="gi" d="M47.91,10.91c-1.49,1.53-1.95-1.02-1.95-2.11-.12,2.98-1.49,5.54-1.49,5.54,1.79-.73,2.91-1.96,3.44-3.43h0Z"/></g><g class="io"><path class="gz" d="M44.21,3.67c.15.13.08.45-.15.72s-.54.39-.69.26-.08-.45.15-.72.54-.39.69-.26Z"/></g><g class="kj"><path class="hx" d="M43.99,4.47s-.04.06-.07.09c-.23.27-.54.39-.69.26s-.08-.45.15-.72c.02-.03.05-.05.07-.08-.17.25-.21.52-.08.63s.39.03.61-.18h0Z"/></g><g class="jq"><path class="gz" d="M43.69,5.95c.1.09.06.31-.1.5s-.37.27-.47.18-.06-.31.1-.5.37-.27.47-.18Z"/></g><g class="jo"><path class="hx" d="M43.53,6.5s-.03.04-.05.06c-.16.19-.37.27-.47.18s-.06-.31.1-.5c.02-.02.03-.04.05-.05-.12.17-.15.36-.06.44s.27.02.42-.12h0Z"/></g><path class="hn" d="M46.51,14.97c3.08,3.15,4.81-1.18,6.85-1.59-2.74-2.12-6.67-1.55-6.85,1.59Z"/><g class="ki"><path class="ge" d="M52.35,13.86c.33-.24.67-.41,1.01-.48-1.81-1.4-4.15-1.63-5.57-.71.1-.04,2.14-.97,4.56,1.19h0Z"/></g><path class="gi" d="M46.51,14.97c.21.22.42.4.62.55,1.76-2.61,3.75-2.36,3.75-2.36-2.32-.4-4.37,1.81-4.37,1.81h0Z"/><g class="kn"><path class="gi" d="M50.88,13.16c-2.37.27-2.34,2.94-.66,2.42-1.05.69-2.22.91-3.7-.6.21.22.42.39.61.54,1.76-2.61,3.75-2.36,3.75-2.36h0Z"/></g><g class="ko"><path class="gi" d="M47.55,12.84c-.47.93.78.74,1.28.56-1.36.52-2.32,1.56-2.32,1.56.05-.94.44-1.65,1.04-2.13h0Z"/></g><g class="li"><path class="gz" d="M52.98,12.97c-.07-.02-.15.08-.18.21s0,.24.08.26.15-.08.18-.21,0-.24-.08-.26Z"/></g><g class="jn"><path class="hx" d="M52.79,13.22s0,.03-.01.04c-.03.13,0,.24.08.26s.15-.08.18-.21c0-.01,0-.03,0-.04-.03.11-.1.18-.17.17s-.1-.11-.09-.22h0Z"/></g><g class="kp"><path class="gz" d="M52.42,13.64s-.1.05-.12.14,0,.17.05.18.1-.05.12-.14,0-.17-.05-.18Z"/></g><g class="iw"><path class="hx" d="M52.3,13.81s0,.02,0,.03c-.02.09,0,.17.05.18s.1-.05.12-.14c0,0,0-.02,0-.03-.02.07-.07.12-.12.11s-.07-.07-.06-.15h0Z"/></g><path class="gi" d="M86,131.73c.67-.31,1.24-.63,1.72-.96.47-.34.84-.8,1.11-1.4.27-.6.4-1.43.4-2.49v-13.95h3.35v14.58c0,1.62-.28,2.88-.84,3.79-.56.91-1.2,1.55-1.93,1.93-.73.38-1.36.57-1.89.57-.7,0-1.18-.2-1.45-.61-.27-.41-.43-.89-.48-1.45ZM88.73,100.14c0-.59.21-1.08.63-1.49.42-.4.94-.61,1.55-.61s1.16.2,1.55.61c.39.41.59.9.59,1.49s-.2,1.08-.59,1.49c-.39.41-.91.61-1.55.61s-1.13-.2-1.55-.61c-.42-.4-.63-.9-.63-1.49ZM92.58,116.65l-3.35-.46v-9.85c.14-.06.36-.12.65-.19.29-.07.61-.1.94-.1.59,0,1.03.12,1.32.36.29.24.44.64.44,1.19v9.05Z"/><path class="gi" d="M106.62,116.9h-3.35v-10.56c.14-.06.36-.12.65-.19.29-.07.61-.1.94-.1.59,0,1.03.12,1.32.36.29.24.44.64.44,1.19v9.3ZM103.27,118.53v-3.81h3.35v3.65c0,1.79.47,3.07,1.42,3.86.95.78,2.26,1.17,3.94,1.17,1.12,0,2.07-.12,2.85-.36.78-.24,1.4-.48,1.84-.73v-7.58h3.35v7.46c0,.59-.08,1.05-.23,1.4-.15.35-.52.69-1.11,1.03-.61.36-1.49.71-2.64,1.05-1.15.34-2.51.5-4.11.5-1.84,0-3.42-.27-4.71-.82-1.3-.54-2.28-1.38-2.95-2.51-.67-1.13-1.01-2.56-1.01-4.3ZM120.03,116.9h-3.35v-10.56c.14-.06.36-.12.65-.19.29-.07.59-.1.9-.1.61,0,1.07.12,1.36.36.29.24.44.64.44,1.19v9.3Z"/><path class="gi" d="M130.21,100.14c0-.59.21-1.08.63-1.49.42-.4.94-.61,1.55-.61s1.16.2,1.55.61c.39.41.59.9.59,1.49s-.2,1.08-.59,1.49c-.39.41-.91.61-1.55.61s-1.13-.2-1.55-.61c-.42-.4-.63-.9-.63-1.49ZM134.07,116.19h-3.35v-9.85c.14-.06.36-.12.65-.19.29-.07.61-.1.94-.1.59,0,1.03.12,1.32.36.29.24.44.64.44,1.19v8.59ZM130.72,114.55h3.35v10.98c-.14.06-.35.12-.63.19-.28.07-.59.1-.92.1-.59,0-1.03-.12-1.34-.36-.31-.24-.46-.62-.46-1.15v-9.76Z"/><path class="gi" d="M153.76,108.52c-1.9,0-3.48.64-4.74,1.93-1.26,1.29-1.89,3.13-1.89,5.53s.61,4.2,1.82,5.49c1.22,1.29,2.81,1.93,4.8,1.93,1.17,0,2.15-.16,2.93-.48.78-.32,1.48-.69,2.1-1.11.31.17.56.38.75.63.2.25.29.56.29.92,0,.78-.58,1.45-1.74,1.99-1.16.54-2.61.82-4.34.82-1.93,0-3.65-.37-5.18-1.11-1.52-.74-2.72-1.86-3.58-3.37-.87-1.51-1.3-3.41-1.3-5.7s.45-4.16,1.34-5.68c.89-1.52,2.1-2.67,3.62-3.44,1.52-.77,3.19-1.15,5.01-1.15s3.16.29,4.3.88c1.13.59,1.7,1.26,1.7,2.01,0,.34-.1.63-.29.88-.2.25-.45.45-.75.59-.61-.42-1.29-.78-2.03-1.09-.74-.31-1.68-.46-2.83-.46Z"/><path class="gi" d="M169.73,118.07l-.17-2.64,12.66-1.72c-.11-1.54-.64-2.8-1.59-3.79-.95-.99-2.26-1.49-3.94-1.49s-3.16.62-4.3,1.86c-1.13,1.24-1.7,3.02-1.7,5.34v.92c.2,2.24.93,3.93,2.2,5.09,1.27,1.16,3.01,1.74,5.22,1.74,1.17,0,2.23-.2,3.18-.59.95-.39,1.7-.81,2.26-1.26.31.2.55.43.73.69.18.27.27.57.27.9,0,.53-.3,1.03-.9,1.49-.6.46-1.4.83-2.39,1.11-.99.28-2.1.42-3.33.42-2.15,0-4.02-.39-5.59-1.17-1.58-.78-2.79-1.95-3.65-3.5-.85-1.55-1.28-3.44-1.28-5.68,0-1.59.23-3.01.69-4.25.46-1.24,1.1-2.3,1.93-3.16.82-.87,1.81-1.53,2.95-1.99,1.15-.46,2.39-.69,3.73-.69,1.7,0,3.21.36,4.5,1.09,1.3.73,2.32,1.74,3.06,3.04.74,1.3,1.11,2.79,1.11,4.46,0,.61-.14,1.05-.42,1.32-.28.27-.67.43-1.17.48l-14.08,1.97Z"/><path class="ho" d="M115.09,51.98s0-.02,0-.03c.95-5.16-1.19-6.51-3.44-7.13-.82-.16-1.7-.24-2.6-.24-.08,0-.15,0-.23-.01-.37-.04-.75-.07-1.12-.09-.65,1.8-3.05,9.44-5.85,4.88-.46-.75-.68-1.64-1.09-2.42-.95-1.79-2.93-2.89-4.94-3.1-3.03-.32-5.88,1.14-8.3,2.81-8.79,6.06-15.28,16.06-19.05,25.92-2.14,5.57-3.19,11.68-2.11,17.56.43,2.34,1.35,4.82,3.42,6.01,3.08,1.76,7.43.31,10.22-1.39,3.01-1.83,5.47-4.43,7.89-6.95.37-.38.75-.78,1.23-1,.89-.41,2.06-.11,2.64.69.63.86.53,2.03.65,3.09.53,4.71,5.01,6.51,9.2,6.51.66,0,1.33-.05,2-.14-.64-7.67,2.32-15.56,4.83-22.69,2.58-7.31,5.42-14.59,6.65-22.28ZM101.04,58.29c-1.14,9.02-6.35,17.62-13.01,23.66-1.54,1.4-3.66,2.77-5.57,1.93-1.72-.75-2.29-2.9-2.34-4.78-.11-3.7.82-7.53,2.37-11.19,1.34-3.16,3.11-6.15,5.17-8.9,1.76-2.36,3.94-5.25,6.68-6.5,1.95-.89,4.57-.72,5.89.97,1.03,1.31,1.03,3.15.82,4.8Z"/><path class="gu" d="M155.92,44.39c-1.38-1-3.23-1.11-4.92-.85-4.3.65-7.7,3.23-11.03,5.84-2.05,1.61-5.22,2.89-5.51-.67-.1-1.26-.73-2.48-1.71-3.29-1.66-1.38-4.53-1.42-6.6-1.54-3.72,12.39-9.93,23.82-14.04,36.09-.75,2.24-1.47,4.53-1.67,6.88s.15,4.83,1.41,6.83c1.8,2.87,4.55,3.39,7.69,3.39.73,0,1.46-.04,2.19-.1-.57-5.11-.02-10.15,1.63-15.02,1.76-5.19,4-10.23,6.83-14.92,2.21-3.66,4.76-7.36,7.85-10.33.79-.76,1.67-1.49,2.73-1.76,1.36-.34,3.01.3,3.48,1.62.4,1.13-.1,2.36-.59,3.45-3.83,8.53-8.19,17.29-8.76,26.79-.14,2.32.02,4.75,1.13,6.8,1.61,2.95,4.55,3.46,7.63,3.46.74,0,1.49-.04,2.23-.1-.36.03-.12-7.49-.04-8.17.29-2.56,1.09-5.15,1.8-7.63,1.5-5.26,3.31-10.43,5.6-15.4,2.18-4.73,4.54-9.57,4.88-14.85.15-2.4-.28-5.12-2.23-6.53Z"/><path class="gs" d="M194.62,77.82c3-8.78,6.43-17.51,10.21-25.96,3.14-6.98,5.99-13.96,8.44-20.74.02-.06.05-.12.07-.18,1.84-4.03,2.45-8.33,1.81-12.8-1.11-2.19-2.82-3.58-5.23-4.26,0,0-.01,0-.02,0-1.78-.52-3.58-.86-5.37-1.01.75,3.93.17,8.68-1.74,14.42-2.46,7.51-5.47,14.78-8.51,22.07-.36.87-.82,1.82-1.71,2.12-1.06.34-2.17-.47-2.74-1.43-.57-.96-.82-2.08-1.43-3.02-1.26-1.91-3.83-2.6-6.1-2.25-5.13.79-9.86,4.96-13.22,8.67-3.61,3.99-6.49,8.61-9.01,13.35-2.53,4.74-4.49,9.9-5.17,15.26-.52,4.11-.83,11.41,3.12,14.11,2.04,1.39,4.83.95,7.12.02,3.79-1.54,7.05-4.2,9.77-7.26,2.21-2.49,5.09-2.62,5.44,1.28.11,1.23.03,2.51.52,3.64.78,1.78,2.81,2.69,4.74,2.93,1.49.19,3.08.23,4.61.24.46,0,.92,0,1.37.01.17-3.3-.18-6.5.34-9.82.51-3.29,1.62-6.25,2.69-9.38ZM188.59,61.99c-1.13,3.58-2.58,7.05-4.32,10.31-2.13,4.01-5.03,8.29-8.91,10.78-1.11.71-2.41,1.29-3.72,1.13-1.83-.23-3.22-1.89-3.66-3.68-.45-1.78-.12-3.67.31-5.46,1.96-8.15,6.26-15.82,12.67-21.21.97-.82,2.02-1.6,3.23-1.97.47-.14.97-.21,1.45-.19,1.23.04,2.4.61,3.06,1.74.09.15.16.31.21.48.85,2.69.74,5.41-.33,8.08Z"/><path class="go" d="M246.72,45.94c-2.26-1.39-4.63-2.13-7.22-2.26-3.33,13.49-9.2,25.98-17.44,37.13-.01.02-.03.03-.04.05-1.02,1.3-2.16,2.54-3.22,3.81-.92,1.11-2.02,2.15-3.39,2.57-1.38.42-3.09.02-3.81-1.22-.38-.66-.45-1.45-.44-2.21.04-1.8.5-3.57,1.01-5.3,2.26-7.71,5.44-15.14,8.51-22.55.63-1.52.79-1.96.84-2.08.91-2.8,1.63-6.4-.06-7.81-2.2-1.47-4.55-2.26-7.15-2.39-1.73,5.66-3.86,11.18-6.34,16.42-2.14,4.52-3.97,9.21-5.59,13.94-1.55,4.53-3.01,9-2.58,13.85.15,1.67.51,3.39,1.54,4.72,1.08,1.4,2.81,2.2,4.56,2.38,4.31.42,8.44-2.5,11.56-5.13.44-.37.98-.56,1.52-.56.48,0,.96.14,1.37.44.88.62,1.22,1.76.83,2.77-1.29,3.34-2.83,6.55-4.46,9.73-1.52,2.97-3.2,5.91-5.57,8.29-2.43,2.44-5.75,4.27-9.26,4.28-3.38,0-6.61-2.27-9.02-4.43-1.08,3.43-.65,6.83,1.28,10.29.01.02.02.04.03.06,2.07,3.96,6.48,6.33,10.88,6.2.7-.02,1.4-.11,2.09-.26,2.76-.61,5.23-2.21,7.28-4.15,5.24-4.96,8.7-11.61,12.11-17.87,3.09-5.67,5.87-11.5,8.32-17.47,0-.02.02-.04.03-.06,4.81-10.8,8.94-22,12.28-33.28.75-2.81,1.27-6.42-.44-7.89Z"/></g></svg>