<?xml version="1.0" encoding="UTF-8"?><svg id="b" xmlns="http://www.w3.org/2000/svg" xmlns:xlink="http://www.w3.org/1999/xlink" viewBox="0 0 100 100"><defs><style>.fw{mask:url(#ek);}.fx{filter:url(#dv);}.fy{fill:url(#fn);}.fy,.fz,.ga,.gb,.gc,.gd,.ge,.gf,.gg,.gh,.gi,.gj,.gk,.gl,.gm,.gn,.go,.gp,.gq,.gr,.gs,.gt,.gu,.gv,.gw,.gx,.gy,.gz,.ha,.hb,.hc,.hd,.he,.hf,.hg,.hh,.hi,.hj,.hk,.hl,.hm,.hn,.ho,.hp,.hq,.hr,.hs,.ht,.hu,.hv,.hw,.hx,.hy,.hz,.ia{stroke-width:0px;}.ib{mask:url(#eu);}.ic{filter:url(#bh);}.id{mask:url(#aw);}.ie{mask:url(#bg);}.if{mask:url(#em);}.ig{mask:url(#ak);}.fz{fill:#c5171a;}.ih{mask:url(#cl);}.ga{fill:#e4e357;}.gb{fill:url(#fe);}.gb,.gh,.gi,.gn,.go,.gq,.gv,.gy,.ha,.hb,.hf,.hi,.hj,.hk,.ho,.hp,.ht,.hu,.hv,.hy,.ia{mix-blend-mode:multiply;}.gc{fill:url(#dq);}.ii{mask:url(#i);}.ij{filter:url(#ar);}.gd{fill:url(#an);}.ik{filter:url(#ab);}.il{mask:url(#bx);}.ge{fill:#285325;}.im{mask:url(#cd);}.in{mask:url(#q);}.io{filter:url(#aj);}.gf{fill:url(#bu);}.gg{fill:#010101;}.ip{mask:url(#fo);}.iq{mask:url(#be);}.ir{mask:url(#cx);}.gh{fill:url(#w);}.gi{fill:url(#fm);}.gj{fill:url(#l);}.is{stroke:#010101;stroke-miterlimit:10;}.is,.gl{fill:none;}.it{mask:url(#ch);}.iu{mask:url(#bn);}.iv{mask:url(#ag);}.iw{filter:url(#fb);}.ix{mask:url(#dw);}.iy{mask:url(#du);}.iz{filter:url(#cg);}.ja{mask:url(#ai);}.jb{mask:url(#ac);}.gk{fill:url(#ex);}.gm{fill:url(#av);}.jc{mask:url(#dl);}.jd{mask:url(#ay);}.gn{fill:url(#eg);}.je{filter:url(#et);}.jf{mask:url(#ao);}.go{fill:url(#cb);}.jg{mask:url(#ey);}.jh{mask:url(#dj);}.ji{mask:url(#br);}.jj{mask:url(#db);}.jk{mask:url(#ee);}.jl{filter:url(#co);}.jm{mask:url(#bz);}.gp{fill:url(#bl);}.gq{fill:url(#dy);}.gr{fill:url(#di);}.jn{mask:url(#bv);}.gs{fill:url(#dz);}.jo{mask:url(#y);}.gt{fill:#fff;}.jp{mask:url(#fi);}.jq{filter:url(#cw);}.gu{fill:url(#bm);}.jr{filter:url(#t);}.gv{fill:url(#cj);}.js{filter:url(#fr);}.gw{fill:url(#fv);}.jt{mask:url(#n);}.gx{fill:url(#da);}.ju{mask:url(#dn);}.jv{mask:url(#es);}.gy{fill:url(#ae);}.jw{mask:url(#aq);}.gz{fill:url(#d);}.jx{filter:url(#az);}.ha{fill:url(#eo);}.jy{mask:url(#bi);}.hb{fill:url(#dh);}.hc{fill:url(#eh);}.hd{fill:url(#af);}.jz{mask:url(#ec);}.ka{mask:url(#e);}.he{fill:url(#ff);}.kb{mask:url(#ds);}.hf{fill:url(#bc);}.kc{mask:url(#ct);}.kd{filter:url(#fj);}.hg{fill:url(#bd);}.hh{fill:url(#dr);}.ke{mask:url(#as);}.kf{filter:url(#h);}.hi{fill:url(#dp);}.hj{fill:url(#au);}.kg{mask:url(#ea);}.kh{mask:url(#ei);}.ki{mask:url(#fg);}.hk{fill:url(#cr);}.kj{filter:url(#bq);}.kk{filter:url(#by);}.hl{fill:url(#m);}.kl{mask:url(#fc);}.hm{fill:url(#cs);}.km{mask:url(#cp);}.kn{mask:url(#cn);}.ko{mask:url(#fq);}.kp{filter:url(#ed);}.kq{mask:url(#fa);}.hn{fill:url(#ck);}.kr{mask:url(#aa);}.ho{fill:url(#cz);}.ks{mask:url(#fk);}.hp{fill:url(#ew);}.kt{mask:url(#g);}.ku{mask:url(#s);}.hq{fill:#135d2b;}.kv{filter:url(#dm);}.kw{mask:url(#fs);}.kx{mask:url(#df);}.ky{mask:url(#u);}.kz{mask:url(#ba);}.la{mask:url(#cf);}.lb{mask:url(#eq);}.hr{fill:url(#cc);}.hs{fill:url(#p);}.lc{mask:url(#bp);}.ld{mask:url(#cv);}.ht{fill:url(#am);}.hu{fill:url(#fu);}.le{filter:url(#de);}.hv{fill:url(#k);}.hw{fill:url(#x);}.hx{fill:url(#o);}.hy{fill:url(#bt);}.hz{fill:url(#ep);}.lf{filter:url(#el);}.ia{fill:url(#bk);}.lg{mask:url(#dd);}</style><linearGradient id="d" x1="102.24" y1="62.82" x2="81.61" y2="102.44" gradientTransform="translate(-28.14 -86.16) rotate(6.93)" gradientUnits="userSpaceOnUse"><stop offset="0" stop-color="#1b1b1b"/><stop offset="1" stop-color="#fff"/></linearGradient><filter id="h" x="38.5" y="9.6" width="13.42" height="17.39" color-interpolation-filters="sRGB" filterUnits="userSpaceOnUse"><feFlood flood-color="#fff" result="bg"/><feBlend in="SourceGraphic" in2="bg"/></filter><filter id="j" x="38.5" y="-8548.39" width="13.42" height="32766" color-interpolation-filters="sRGB" filterUnits="userSpaceOnUse"><feFlood flood-color="#fff" result="bg"/><feBlend in="SourceGraphic" in2="bg"/></filter><mask id="i" x="38.5" y="-8548.39" width="13.42" height="32766" maskUnits="userSpaceOnUse"/><linearGradient id="k" x1="25.14" y1="639.18" x2="-4.54" y2="698.73" gradientTransform="translate(45.76 709.03) scale(1 -1)" gradientUnits="userSpaceOnUse"><stop offset="0" stop-color="#fff"/><stop offset="1" stop-color="#000"/></linearGradient><mask id="g" x="38.5" y="9.6" width="13.42" height="17.39" maskUnits="userSpaceOnUse"><g class="kf"><g class="ii"><rect class="hv" x="38.54" y="9.63" width="13.34" height="17.33" transform="translate(-.08 .2) rotate(-.25)"/></g></g></mask><linearGradient id="l" x1="25.14" y1="639.18" x2="-4.54" y2="698.73" gradientTransform="translate(45.76 709.03) scale(1 -1)" gradientUnits="userSpaceOnUse"><stop offset="0" stop-color="#fff"/><stop offset="1" stop-color="#fff"/></linearGradient><mask id="e" x="38.5" y="9.6" width="13.42" height="17.39" maskUnits="userSpaceOnUse"><g id="f"><g class="kt"><rect class="gj" x="38.54" y="9.63" width="13.34" height="17.33" transform="translate(-.08 .2) rotate(-.25)"/></g></g></mask><linearGradient id="m" x1="71.34" y1="136" x2="113.86" y2="136" gradientTransform="translate(-28.14 -86.16) rotate(6.93)" gradientUnits="userSpaceOnUse"><stop offset="0" stop-color="#e94649"/><stop offset=".46" stop-color="#f49624"/><stop offset="1" stop-color="#fac74f"/></linearGradient><linearGradient id="o" x1="91.69" y1="169.5" x2="91.69" y2="95.69" gradientTransform="translate(-44.82 -76.06)" gradientUnits="userSpaceOnUse"><stop offset="0" stop-color="#fff"/><stop offset=".12" stop-color="#fff" stop-opacity=".81"/><stop offset=".3" stop-color="#fff" stop-opacity=".57"/><stop offset=".48" stop-color="#fff" stop-opacity=".37"/><stop offset=".64" stop-color="#fff" stop-opacity=".21"/><stop offset=".78" stop-color="#fff" stop-opacity=".09"/><stop offset=".91" stop-color="#fff" stop-opacity=".02"/><stop offset="1" stop-color="#fff" stop-opacity="0"/></linearGradient><mask id="n" x="22.36" y="17.46" width="49.02" height="78.15" maskUnits="userSpaceOnUse"><rect class="hx" x="26.67" y="19.62" width="40.4" height="73.81" transform="translate(7.17 -5.24) rotate(6.93)"/></mask><linearGradient id="p" x1="68.92" y1="108.45" x2="116.51" y2="108.45" xlink:href="#m"/><filter id="t" x="39.2" y="20.13" width="2.96" height="4.55" color-interpolation-filters="sRGB" filterUnits="userSpaceOnUse"><feFlood flood-color="#fff" result="bg"/><feBlend in="SourceGraphic" in2="bg"/></filter><filter id="v" x="39.2" y="-8548.39" width="2.96" height="32766" color-interpolation-filters="sRGB" filterUnits="userSpaceOnUse"><feFlood flood-color="#fff" result="bg"/><feBlend in="SourceGraphic" in2="bg"/></filter><mask id="u" x="39.2" y="-8548.39" width="2.96" height="32766" maskUnits="userSpaceOnUse"/><linearGradient id="w" x1="6838.1" y1="-1112.53" x2="6835.8" y2="-1216.8" gradientTransform="translate(124.51 -469.85) rotate(90) scale(.07 -.07)" gradientUnits="userSpaceOnUse"><stop offset="0" stop-color="#fff"/><stop offset=".52" stop-color="#000"/><stop offset="1" stop-color="#fff"/></linearGradient><mask id="s" x="39.2" y="20.13" width="2.96" height="4.55" maskUnits="userSpaceOnUse"><g class="jr"><g class="ky"><rect class="gh" x="38.53" y="21.18" width="4.28" height="2.46" transform="translate(13.52 60.08) rotate(-83.07)"/></g></g></mask><linearGradient id="x" x1="6838.1" y1="-1112.53" x2="6835.8" y2="-1216.8" gradientTransform="translate(124.51 -469.85) rotate(90) scale(.07 -.07)" gradientUnits="userSpaceOnUse"><stop offset="0" stop-color="#fff"/><stop offset=".52" stop-color="#fff"/><stop offset="1" stop-color="#fff"/></linearGradient><mask id="q" x="39.2" y="20.13" width="2.96" height="4.55" maskUnits="userSpaceOnUse"><g id="r"><g class="ku"><rect class="hw" x="38.53" y="21.18" width="4.28" height="2.46" transform="translate(13.52 60.08) rotate(-83.07)"/></g></g></mask><filter id="ab" x="39.11" y="22.49" width="2.75" height="2.87" color-interpolation-filters="sRGB" filterUnits="userSpaceOnUse"><feFlood flood-color="#fff" result="bg"/><feBlend in="SourceGraphic" in2="bg"/></filter><filter id="ad" x="39.11" y="-8548.39" width="2.75" height="32766" color-interpolation-filters="sRGB" filterUnits="userSpaceOnUse"><feFlood flood-color="#fff" result="bg"/><feBlend in="SourceGraphic" in2="bg"/></filter><mask id="ac" x="39.11" y="-8548.39" width="2.75" height="32766" maskUnits="userSpaceOnUse"/><linearGradient id="ae" x1="6843.35" y1="-1082.06" x2="6834.45" y2="-1226.31" gradientTransform="translate(125.86 -468.33) rotate(90) scale(.07 -.07)" xlink:href="#k"/><mask id="aa" x="39.11" y="22.49" width="2.75" height="2.87" maskUnits="userSpaceOnUse"><g class="ik"><g class="jb"><rect class="gy" x="39.19" y="22.7" width="2.59" height="2.46" transform="translate(11.85 61.24) rotate(-83.07)"/></g></g></mask><linearGradient id="af" x1="6843.35" y1="-1082.06" x2="6834.45" y2="-1226.31" gradientTransform="translate(125.86 -468.33) rotate(90) scale(.07 -.07)" xlink:href="#l"/><mask id="y" x="39.11" y="22.49" width="2.75" height="2.87" maskUnits="userSpaceOnUse"><g id="z"><g class="kr"><rect class="hd" x="39.19" y="22.7" width="2.59" height="2.46" transform="translate(11.85 61.24) rotate(-83.07)"/></g></g></mask><filter id="aj" x="31.95" y="22.54" width="4.23" height="6.57" color-interpolation-filters="sRGB" filterUnits="userSpaceOnUse"><feFlood flood-color="#fff" result="bg"/><feBlend in="SourceGraphic" in2="bg"/></filter><filter id="al" x="31.95" y="-8548.39" width="4.23" height="32766" color-interpolation-filters="sRGB" filterUnits="userSpaceOnUse"><feFlood flood-color="#fff" result="bg"/><feBlend in="SourceGraphic" in2="bg"/></filter><mask id="ak" x="31.95" y="-8548.39" width="4.23" height="32766" maskUnits="userSpaceOnUse"/><linearGradient id="am" x1="6753.28" y1="-1146.42" x2="6749.89" y2="-1299.6" gradientTransform="translate(122.09 -460.29) rotate(90) scale(.07 -.07)" xlink:href="#w"/><mask id="ai" x="31.95" y="22.54" width="4.23" height="6.57" maskUnits="userSpaceOnUse"><g class="io"><g class="ig"><rect class="ht" x="30.97" y="24.07" width="6.19" height="3.51" transform="translate(4.32 56.53) rotate(-83.07)"/></g></g></mask><linearGradient id="an" x1="6753.28" y1="-1146.42" x2="6749.89" y2="-1299.6" gradientTransform="translate(122.09 -460.29) rotate(90) scale(.07 -.07)" xlink:href="#x"/><mask id="ag" x="31.95" y="22.54" width="4.23" height="6.57" maskUnits="userSpaceOnUse"><g id="ah"><g class="ja"><rect class="gd" x="30.97" y="24.07" width="6.19" height="3.51" transform="translate(4.32 56.53) rotate(-83.07)"/></g></g></mask><filter id="ar" x="31.83" y="26.01" width="3.93" height="4.11" color-interpolation-filters="sRGB" filterUnits="userSpaceOnUse"><feFlood flood-color="#fff" result="bg"/><feBlend in="SourceGraphic" in2="bg"/></filter><filter id="at" x="31.83" y="-8548.39" width="3.93" height="32766" color-interpolation-filters="sRGB" filterUnits="userSpaceOnUse"><feFlood flood-color="#fff" result="bg"/><feBlend in="SourceGraphic" in2="bg"/></filter><mask id="as" x="31.83" y="-8548.39" width="3.93" height="32766" maskUnits="userSpaceOnUse"/><linearGradient id="au" x1="6760.99" y1="-1101.66" x2="6747.91" y2="-1313.57" gradientTransform="translate(124.07 -458.05) rotate(90) scale(.07 -.07)" xlink:href="#k"/><mask id="aq" x="31.83" y="26.01" width="3.93" height="4.11" maskUnits="userSpaceOnUse"><g class="ij"><g class="ke"><rect class="hj" x="31.94" y="26.31" width="3.71" height="3.51" transform="translate(1.86 58.22) rotate(-83.07)"/></g></g></mask><linearGradient id="av" x1="6760.99" y1="-1101.66" x2="6747.91" y2="-1313.57" gradientTransform="translate(124.07 -458.05) rotate(90) scale(.07 -.07)" xlink:href="#l"/><mask id="ao" x="31.83" y="26.01" width="3.93" height="4.11" maskUnits="userSpaceOnUse"><g id="ap"><g class="jw"><rect class="gm" x="31.94" y="26.31" width="3.71" height="3.51" transform="translate(1.86 58.22) rotate(-83.07)"/></g></g></mask><filter id="az" x="71.76" y="25.08" width="2.14" height="3.25" color-interpolation-filters="sRGB" filterUnits="userSpaceOnUse"><feFlood flood-color="#fff" result="bg"/><feBlend in="SourceGraphic" in2="bg"/></filter><filter id="bb" x="71.76" y="-8548.39" width="2.14" height="32766" color-interpolation-filters="sRGB" filterUnits="userSpaceOnUse"><feFlood flood-color="#fff" result="bg"/><feBlend in="SourceGraphic" in2="bg"/></filter><mask id="ba" x="71.76" y="-8548.39" width="2.14" height="32766" maskUnits="userSpaceOnUse"/><linearGradient id="bc" x1="7288.29" y1="-1133.47" x2="7286.68" y2="-1206.42" gradientTransform="translate(157.05 -497.99) rotate(90) scale(.07 -.07)" xlink:href="#w"/><mask id="ay" x="71.76" y="25.08" width="2.14" height="3.25" maskUnits="userSpaceOnUse"><g class="jx"><g class="kz"><rect class="hf" x="71.3" y="25.82" width="3.06" height="1.78" transform="translate(37.53 95.78) rotate(-83.07)"/></g></g></mask><linearGradient id="bd" x1="7288.29" y1="-1133.47" x2="7286.68" y2="-1206.42" gradientTransform="translate(157.05 -497.99) rotate(90) scale(.07 -.07)" xlink:href="#x"/><mask id="aw" x="71.76" y="25.08" width="2.14" height="3.25" maskUnits="userSpaceOnUse"><g id="ax"><g class="jd"><rect class="hg" x="71.3" y="25.82" width="3.06" height="1.78" transform="translate(37.53 95.78) rotate(-83.07)"/></g></g></mask><filter id="bh" x="71.7" y="26.73" width="2" height="2.08" color-interpolation-filters="sRGB" filterUnits="userSpaceOnUse"><feFlood flood-color="#fff" result="bg"/><feBlend in="SourceGraphic" in2="bg"/></filter><filter id="bj" x="71.7" y="-8548.39" width="2" height="32766" color-interpolation-filters="sRGB" filterUnits="userSpaceOnUse"><feFlood flood-color="#fff" result="bg"/><feBlend in="SourceGraphic" in2="bg"/></filter><mask id="bi" x="71.7" y="-8548.39" width="2" height="32766" maskUnits="userSpaceOnUse"/><linearGradient id="bk" x1="7291.97" y1="-1112.16" x2="7285.74" y2="-1213.08" gradientTransform="translate(157.99 -496.93) rotate(90) scale(.07 -.07)" xlink:href="#k"/><mask id="bg" x="71.7" y="26.73" width="2" height="2.08" maskUnits="userSpaceOnUse"><g class="ic"><g class="jy"><rect class="ia" x="71.76" y="26.88" width="1.88" height="1.78" transform="translate(36.35 96.59) rotate(-83.07)"/></g></g></mask><linearGradient id="bl" x1="7291.97" y1="-1112.16" x2="7285.74" y2="-1213.08" gradientTransform="translate(157.99 -496.93) rotate(90) scale(.07 -.07)" xlink:href="#l"/><mask id="be" x="71.7" y="26.73" width="2" height="2.08" maskUnits="userSpaceOnUse"><g id="bf"><g class="ie"><rect class="gp" x="71.76" y="26.88" width="1.88" height="1.78" transform="translate(36.35 96.59) rotate(-83.07)"/></g></g></mask><linearGradient id="bm" x1="13707.56" y1="-5974.54" x2="13711.83" y2="-5857.99" gradientTransform="translate(-419.73 -952.76) rotate(40.5) scale(.07 -.07)" gradientUnits="userSpaceOnUse"><stop offset="0" stop-color="#358c35"/><stop offset="1" stop-color="#e4e357"/></linearGradient><filter id="bq" x="50.62" y="8.28" width="7.4" height="6.97" color-interpolation-filters="sRGB" filterUnits="userSpaceOnUse"><feFlood flood-color="#fff" result="bg"/><feBlend in="SourceGraphic" in2="bg"/></filter><filter id="bs" x="50.62" y="-8548.39" width="7.4" height="32766" color-interpolation-filters="sRGB" filterUnits="userSpaceOnUse"><feFlood flood-color="#fff" result="bg"/><feBlend in="SourceGraphic" in2="bg"/></filter><mask id="br" x="50.62" y="-8548.39" width="7.4" height="32766" maskUnits="userSpaceOnUse"/><linearGradient id="bt" x1="13640.93" y1="-5768.38" x2="13718.63" y2="-5936.3" gradientTransform="translate(479.88 -975.12) rotate(90) scale(.07 -.07)" xlink:href="#k"/><mask id="bp" x="50.62" y="8.28" width="7.4" height="6.97" maskUnits="userSpaceOnUse"><g class="kj"><g class="ji"><rect class="hy" x="52.75" y="8.24" width="3.15" height="7.05" transform="translate(10.1 45.43) rotate(-49.5)"/></g></g></mask><linearGradient id="bu" x1="13640.93" y1="-5768.38" x2="13718.63" y2="-5936.3" gradientTransform="translate(479.88 -975.12) rotate(90) scale(.07 -.07)" xlink:href="#l"/><mask id="bn" x="50.62" y="8.28" width="7.4" height="6.97" maskUnits="userSpaceOnUse"><g id="bo"><g class="lc"><rect class="gf" x="52.75" y="8.24" width="3.15" height="7.05" transform="translate(10.1 45.43) rotate(-49.5)"/></g></g></mask><filter id="by" x="49.78" y="10.82" width="7.18" height="7.25" color-interpolation-filters="sRGB" filterUnits="userSpaceOnUse"><feFlood flood-color="#fff" result="bg"/><feBlend in="SourceGraphic" in2="bg"/></filter><filter id="ca" x="49.78" y="-8548.39" width="7.18" height="32766" color-interpolation-filters="sRGB" filterUnits="userSpaceOnUse"><feFlood flood-color="#fff" result="bg"/><feBlend in="SourceGraphic" in2="bg"/></filter><mask id="bz" x="49.78" y="-8548.39" width="7.18" height="32766" maskUnits="userSpaceOnUse"/><linearGradient id="cb" x1="13848.44" y1="-6111.44" x2="13685.97" y2="-5902.54" gradientTransform="translate(481.58 -973.46) rotate(90) scale(.07 -.07)" xlink:href="#k"/><mask id="bx" x="49.78" y="10.82" width="7.18" height="7.25" maskUnits="userSpaceOnUse"><g class="kk"><g class="jm"><rect class="go" x="50.66" y="12.04" width="5.43" height="4.8" transform="translate(7.73 45.65) rotate(-49.5)"/></g></g></mask><linearGradient id="cc" x1="13848.44" y1="-6111.44" x2="13685.97" y2="-5902.54" gradientTransform="translate(481.58 -973.46) rotate(90) scale(.07 -.07)" xlink:href="#l"/><mask id="bv" x="49.78" y="10.82" width="7.18" height="7.25" maskUnits="userSpaceOnUse"><g id="bw"><g class="il"><rect class="hr" x="50.66" y="12.04" width="5.43" height="4.8" transform="translate(7.73 45.65) rotate(-49.5)"/></g></g></mask><filter id="cg" x="52.3" y="14.12" width="3.94" height="4.08" color-interpolation-filters="sRGB" filterUnits="userSpaceOnUse"><feFlood flood-color="#fff" result="bg"/><feBlend in="SourceGraphic" in2="bg"/></filter><filter id="ci" x="52.3" y="-8548.39" width="3.94" height="32766" color-interpolation-filters="sRGB" filterUnits="userSpaceOnUse"><feFlood flood-color="#fff" result="bg"/><feBlend in="SourceGraphic" in2="bg"/></filter><mask id="ch" x="52.3" y="-8548.39" width="3.94" height="32766" maskUnits="userSpaceOnUse"/><linearGradient id="cj" x1="13859.19" y1="-6103.08" x2="13696.72" y2="-5894.18" gradientTransform="translate(483.21 -973.54) rotate(90) scale(.07 -.07)" xlink:href="#k"/><mask id="cf" x="52.3" y="14.12" width="3.94" height="4.08" maskUnits="userSpaceOnUse"><g class="iz"><g class="it"><rect class="gv" x="52.53" y="15.07" width="3.49" height="2.2" transform="translate(6.74 46.94) rotate(-49.5)"/></g></g></mask><linearGradient id="ck" x1="13859.19" y1="-6103.08" x2="13696.72" y2="-5894.18" gradientTransform="translate(483.21 -973.54) rotate(90) scale(.07 -.07)" xlink:href="#l"/><mask id="cd" x="52.3" y="14.12" width="3.94" height="4.08" maskUnits="userSpaceOnUse"><g id="ce"><g class="la"><rect class="hn" x="52.53" y="15.07" width="3.49" height="2.2" transform="translate(6.74 46.94) rotate(-49.5)"/></g></g></mask><filter id="co" x="52.64" y="10.59" width="1.02" height="1.06" color-interpolation-filters="sRGB" filterUnits="userSpaceOnUse"><feFlood flood-color="#fff" result="bg"/><feBlend in="SourceGraphic" in2="bg"/></filter><filter id="cq" x="52.64" y="-8548.39" width="1.02" height="32766" color-interpolation-filters="sRGB" filterUnits="userSpaceOnUse"><feFlood flood-color="#fff" result="bg"/><feBlend in="SourceGraphic" in2="bg"/></filter><mask id="cp" x="52.64" y="-8548.39" width="1.02" height="32766" maskUnits="userSpaceOnUse"/><linearGradient id="cr" x1="13688.77" y1="-5903.49" x2="13688.29" y2="-5925.2" gradientTransform="translate(478.98 -974.45) rotate(90) scale(.07 -.07)" xlink:href="#w"/><mask id="cn" x="52.64" y="10.59" width="1.02" height="1.06" maskUnits="userSpaceOnUse"><g class="jl"><g class="km"><rect class="hk" x="52.69" y="10.85" width=".93" height=".55" transform="translate(10.18 44.31) rotate(-49.5)"/></g></g></mask><linearGradient id="cs" x1="13688.77" y1="-5903.49" x2="13688.29" y2="-5925.2" gradientTransform="translate(478.98 -974.45) rotate(90) scale(.07 -.07)" xlink:href="#x"/><mask id="cl" x="52.64" y="10.59" width="1.02" height="1.06" maskUnits="userSpaceOnUse"><g id="cm"><g class="kn"><rect class="hm" x="52.69" y="10.85" width=".93" height=".55" transform="translate(10.18 44.31) rotate(-49.5)"/></g></g></mask><filter id="cw" x="52.55" y="10.97" width=".79" height=".79" color-interpolation-filters="sRGB" filterUnits="userSpaceOnUse"><feFlood flood-color="#fff" result="bg"/><feBlend in="SourceGraphic" in2="bg"/></filter><filter id="cy" x="52.55" y="-8548.39" width=".79" height="32766" color-interpolation-filters="sRGB" filterUnits="userSpaceOnUse"><feFlood flood-color="#fff" result="bg"/><feBlend in="SourceGraphic" in2="bg"/></filter><mask id="cx" x="52.55" y="-8548.39" width=".79" height="32766" maskUnits="userSpaceOnUse"/><linearGradient id="cz" x1="13689.87" y1="-5897.15" x2="13688.01" y2="-5927.19" gradientTransform="translate(479.09 -974.21) rotate(90) scale(.07 -.07)" xlink:href="#k"/><mask id="cv" x="52.55" y="10.97" width=".79" height=".79" maskUnits="userSpaceOnUse"><g class="jq"><g class="ir"><rect class="ho" x="52.66" y="11.09" width=".57" height=".55" transform="translate(9.92 44.24) rotate(-49.5)"/></g></g></mask><linearGradient id="da" x1="13689.87" y1="-5897.15" x2="13688.01" y2="-5927.19" gradientTransform="translate(479.09 -974.21) rotate(90) scale(.07 -.07)" xlink:href="#l"/><mask id="ct" x="52.55" y="10.97" width=".79" height=".79" maskUnits="userSpaceOnUse"><g id="cu"><g class="ld"><rect class="gx" x="52.66" y="11.09" width=".57" height=".55" transform="translate(9.92 44.24) rotate(-49.5)"/></g></g></mask><filter id="de" x="52.52" y="12.15" width=".74" height=".76" color-interpolation-filters="sRGB" filterUnits="userSpaceOnUse"><feFlood flood-color="#fff" result="bg"/><feBlend in="SourceGraphic" in2="bg"/></filter><filter id="dg" x="52.52" y="-8548.39" width=".74" height="32766" color-interpolation-filters="sRGB" filterUnits="userSpaceOnUse"><feFlood flood-color="#fff" result="bg"/><feBlend in="SourceGraphic" in2="bg"/></filter><mask id="df" x="52.52" y="-8548.39" width=".74" height="32766" maskUnits="userSpaceOnUse"/><linearGradient id="dh" x1="13698.63" y1="-5924.06" x2="13698.3" y2="-5939.04" gradientTransform="translate(479.96 -973.76) rotate(90) scale(.07 -.07)" xlink:href="#w"/><mask id="dd" x="52.52" y="12.15" width=".74" height=".76" maskUnits="userSpaceOnUse"><g class="le"><g class="kx"><rect class="hb" x="52.56" y="12.33" width=".66" height=".4" transform="translate(9.01 44.61) rotate(-49.5)"/></g></g></mask><linearGradient id="di" x1="13698.63" y1="-5924.06" x2="13698.3" y2="-5939.04" gradientTransform="translate(479.96 -973.76) rotate(90) scale(.07 -.07)" xlink:href="#x"/><mask id="db" x="52.52" y="12.15" width=".74" height=".76" maskUnits="userSpaceOnUse"><g id="dc"><g class="lg"><rect class="gr" x="52.56" y="12.33" width=".66" height=".4" transform="translate(9.01 44.61) rotate(-49.5)"/></g></g></mask><filter id="dm" x="52.46" y="12.41" width=".58" height=".58" color-interpolation-filters="sRGB" filterUnits="userSpaceOnUse"><feFlood flood-color="#fff" result="bg"/><feBlend in="SourceGraphic" in2="bg"/></filter><filter id="do" x="52.46" y="-8548.39" width=".58" height="32766" color-interpolation-filters="sRGB" filterUnits="userSpaceOnUse"><feFlood flood-color="#fff" result="bg"/><feBlend in="SourceGraphic" in2="bg"/></filter><mask id="dn" x="52.46" y="-8548.39" width=".58" height="32766" maskUnits="userSpaceOnUse"/><linearGradient id="dp" x1="13699.38" y1="-5919.68" x2="13698.1" y2="-5940.4" gradientTransform="translate(480.03 -973.59) rotate(90) scale(.07 -.07)" xlink:href="#k"/><mask id="dl" x="52.46" y="12.41" width=".58" height=".58" maskUnits="userSpaceOnUse"><g class="kv"><g class="ju"><rect class="hi" x="52.54" y="12.5" width=".42" height=".4" transform="translate(8.84 44.56) rotate(-49.5)"/></g></g></mask><linearGradient id="dq" x1="13699.38" y1="-5919.68" x2="13698.1" y2="-5940.4" gradientTransform="translate(480.03 -973.59) rotate(90) scale(.07 -.07)" xlink:href="#l"/><mask id="dj" x="52.46" y="12.41" width=".58" height=".58" maskUnits="userSpaceOnUse"><g id="dk"><g class="jc"><rect class="gc" x="52.54" y="12.5" width=".42" height=".4" transform="translate(8.84 44.56) rotate(-49.5)"/></g></g></mask><linearGradient id="dr" x1="20118.4" y1="-5586.87" x2="20120.49" y2="-5530.01" gradientTransform="translate(1508.07 409.83) rotate(-149.41) scale(.07)" xlink:href="#bm"/><filter id="dv" x="55.75" y="15.41" width="3.74" height="3.07" color-interpolation-filters="sRGB" filterUnits="userSpaceOnUse"><feFlood flood-color="#fff" result="bg"/><feBlend in="SourceGraphic" in2="bg"/></filter><filter id="dx" x="55.75" y="-8548.39" width="3.74" height="32766" color-interpolation-filters="sRGB" filterUnits="userSpaceOnUse"><feFlood flood-color="#fff" result="bg"/><feBlend in="SourceGraphic" in2="bg"/></filter><mask id="dw" x="55.75" y="-8548.39" width="3.74" height="32766" maskUnits="userSpaceOnUse"/><linearGradient id="dy" x1="20085.89" y1="-5486.28" x2="20123.81" y2="-5568.22" gradientTransform="translate(457.63 1465.45) rotate(-90) scale(.07)" xlink:href="#k"/><mask id="du" x="55.75" y="15.41" width="3.74" height="3.07" maskUnits="userSpaceOnUse"><g class="fx"><g class="ix"><rect class="gq" x="56.86" y="15.23" width="1.54" height="3.44" transform="translate(13.71 57.93) rotate(-59.41)"/></g></g></mask><linearGradient id="dz" x1="20085.89" y1="-5486.28" x2="20123.81" y2="-5568.22" gradientTransform="translate(457.63 1465.45) rotate(-90) scale(.07)" xlink:href="#l"/><mask id="ds" x="55.75" y="15.41" width="3.74" height="3.07" maskUnits="userSpaceOnUse"><g id="dt"><g class="iy"><rect class="gs" x="56.86" y="15.23" width="1.54" height="3.44" transform="translate(13.71 57.93) rotate(-59.41)"/></g></g></mask><filter id="ed" x="54.86" y="16.08" width="3.36" height="3.47" color-interpolation-filters="sRGB" filterUnits="userSpaceOnUse"><feFlood flood-color="#fff" result="bg"/><feBlend in="SourceGraphic" in2="bg"/></filter><filter id="ef" x="54.86" y="-8548.39" width="3.36" height="32766" color-interpolation-filters="sRGB" filterUnits="userSpaceOnUse"><feFlood flood-color="#fff" result="bg"/><feBlend in="SourceGraphic" in2="bg"/></filter><mask id="ee" x="54.86" y="-8548.39" width="3.36" height="32766" maskUnits="userSpaceOnUse"/><linearGradient id="eg" x1="20187.14" y1="-5653.67" x2="20107.87" y2="-5551.74" gradientTransform="translate(457.84 1466.8) rotate(-90) scale(.07)" xlink:href="#k"/><mask id="ec" x="54.86" y="16.08" width="3.36" height="3.47" maskUnits="userSpaceOnUse"><g class="kp"><g class="jk"><rect class="gn" x="55.22" y="16.64" width="2.65" height="2.34" transform="translate(12.43 57.42) rotate(-59.41)"/></g></g></mask><linearGradient id="eh" x1="20187.14" y1="-5653.67" x2="20107.87" y2="-5551.74" gradientTransform="translate(457.84 1466.8) rotate(-90) scale(.07)" xlink:href="#l"/><mask id="ea" x="54.86" y="16.08" width="3.36" height="3.47" maskUnits="userSpaceOnUse"><g id="eb"><g class="jz"><rect class="hc" x="55.22" y="16.64" width="2.65" height="2.34" transform="translate(12.43 57.42) rotate(-59.41)"/></g></g></mask><filter id="el" x="54.71" y="16.66" width="1.79" height="2.01" color-interpolation-filters="sRGB" filterUnits="userSpaceOnUse"><feFlood flood-color="#fff" result="bg"/><feBlend in="SourceGraphic" in2="bg"/></filter><filter id="en" x="54.71" y="-8548.39" width="1.79" height="32766" color-interpolation-filters="sRGB" filterUnits="userSpaceOnUse"><feFlood flood-color="#fff" result="bg"/><feBlend in="SourceGraphic" in2="bg"/></filter><mask id="em" x="54.71" y="-8548.39" width="1.79" height="32766" maskUnits="userSpaceOnUse"/><linearGradient id="eo" x1="20192.39" y1="-5649.59" x2="20113.11" y2="-5547.67" gradientTransform="translate(457.25 1467.54) rotate(-90) scale(.07)" xlink:href="#k"/><mask id="ek" x="54.71" y="16.66" width="1.79" height="2.01" maskUnits="userSpaceOnUse"><g class="lf"><g class="if"><rect class="ha" x="54.75" y="17.13" width="1.71" height="1.07" transform="translate(12.09 56.54) rotate(-59.41)"/></g></g></mask><linearGradient id="ep" x1="20192.39" y1="-5649.59" x2="20113.11" y2="-5547.67" gradientTransform="translate(457.25 1467.54) rotate(-90) scale(.07)" xlink:href="#l"/><mask id="ei" x="54.71" y="16.66" width="1.79" height="2.01" maskUnits="userSpaceOnUse"><g id="ej"><g class="fw"><rect class="hz" x="54.75" y="17.13" width="1.71" height="1.07" transform="translate(12.09 56.54) rotate(-59.41)"/></g></g></mask><filter id="et" x="59.03" y="16.9" width=".27" height=".38" color-interpolation-filters="sRGB" filterUnits="userSpaceOnUse"><feFlood flood-color="#fff" result="bg"/><feBlend in="SourceGraphic" in2="bg"/></filter><filter id="ev" x="59.03" y="-8548.39" width=".27" height="32766" color-interpolation-filters="sRGB" filterUnits="userSpaceOnUse"><feFlood flood-color="#fff" result="bg"/><feBlend in="SourceGraphic" in2="bg"/></filter><mask id="eu" x="59.03" y="-8548.39" width=".27" height="32766" maskUnits="userSpaceOnUse"/><linearGradient id="ew" x1="23404.14" y1="-1925.99" x2="23403.97" y2="-1934.03" gradientTransform="translate(198.12 1702.18) rotate(-90) scale(.07)" xlink:href="#w"/><mask id="es" x="59.03" y="16.9" width=".27" height=".38" maskUnits="userSpaceOnUse"><g class="je"><g class="ib"><rect class="hp" x="58.99" y="16.98" width=".34" height=".2" transform="translate(30.16 71.41) rotate(-78.01)"/></g></g></mask><linearGradient id="ex" x1="23404.14" y1="-1925.99" x2="23403.97" y2="-1934.03" gradientTransform="translate(198.12 1702.18) rotate(-90) scale(.07)" xlink:href="#x"/><mask id="eq" x="59.03" y="16.9" width=".27" height=".38" maskUnits="userSpaceOnUse"><g id="er"><g class="jv"><rect class="gk" x="58.99" y="16.98" width=".34" height=".2" transform="translate(30.16 71.41) rotate(-78.01)"/></g></g></mask><filter id="fb" x="59.02" y="17.08" width=".24" height=".25" color-interpolation-filters="sRGB" filterUnits="userSpaceOnUse"><feFlood flood-color="#fff" result="bg"/><feBlend in="SourceGraphic" in2="bg"/></filter><filter id="fd" x="59.02" y="-8548.39" width=".24" height="32766" color-interpolation-filters="sRGB" filterUnits="userSpaceOnUse"><feFlood flood-color="#fff" result="bg"/><feBlend in="SourceGraphic" in2="bg"/></filter><mask id="fc" x="59.02" y="-8548.39" width=".24" height="32766" maskUnits="userSpaceOnUse"/><linearGradient id="fe" x1="23404.55" y1="-1923.64" x2="23403.86" y2="-1934.76" gradientTransform="translate(198.22 1702.29) rotate(-90) scale(.07)" xlink:href="#k"/><mask id="fa" x="59.02" y="17.08" width=".24" height=".25" maskUnits="userSpaceOnUse"><g class="iw"><g class="kl"><rect class="gb" x="59.04" y="17.1" width=".21" height=".2" transform="translate(30.03 71.48) rotate(-78.01)"/></g></g></mask><linearGradient id="ff" x1="23404.55" y1="-1923.64" x2="23403.86" y2="-1934.76" gradientTransform="translate(198.22 1702.29) rotate(-90) scale(.07)" xlink:href="#l"/><mask id="ey" x="59.02" y="17.08" width=".24" height=".25" maskUnits="userSpaceOnUse"><g id="ez"><g class="kq"><rect class="he" x="59.04" y="17.1" width=".21" height=".2" transform="translate(30.03 71.48) rotate(-78.01)"/></g></g></mask><filter id="fj" x="58.71" y="17.34" width=".2" height=".27" color-interpolation-filters="sRGB" filterUnits="userSpaceOnUse"><feFlood flood-color="#fff" result="bg"/><feBlend in="SourceGraphic" in2="bg"/></filter><filter id="fl" x="58.71" y="-8548.39" width=".2" height="32766" color-interpolation-filters="sRGB" filterUnits="userSpaceOnUse"><feFlood flood-color="#fff" result="bg"/><feBlend in="SourceGraphic" in2="bg"/></filter><mask id="fk" x="58.71" y="-8548.39" width=".2" height="32766" maskUnits="userSpaceOnUse"/><linearGradient id="fm" x1="23407.79" y1="-1933.6" x2="23407.67" y2="-1939.14" gradientTransform="translate(198.23 1702.83) rotate(-90) scale(.07)" xlink:href="#w"/><mask id="fi" x="58.71" y="17.34" width=".2" height=".27" maskUnits="userSpaceOnUse"><g class="kd"><g class="ks"><rect class="gi" x="58.69" y="17.4" width=".25" height=".15" transform="translate(29.5 71.38) rotate(-78.01)"/></g></g></mask><linearGradient id="fn" x1="23407.79" y1="-1933.6" x2="23407.67" y2="-1939.14" gradientTransform="translate(198.23 1702.83) rotate(-90) scale(.07)" xlink:href="#x"/><mask id="fg" x="58.71" y="17.34" width=".2" height=".27" maskUnits="userSpaceOnUse"><g id="fh"><g class="jp"><rect class="fy" x="58.69" y="17.4" width=".25" height=".15" transform="translate(29.5 71.38) rotate(-78.01)"/></g></g></mask><filter id="fr" x="58.71" y="17.47" width=".18" height=".18" color-interpolation-filters="sRGB" filterUnits="userSpaceOnUse"><feFlood flood-color="#fff" result="bg"/><feBlend in="SourceGraphic" in2="bg"/></filter><filter id="ft" x="58.71" y="-8548.39" width=".18" height="32766" color-interpolation-filters="sRGB" filterUnits="userSpaceOnUse"><feFlood flood-color="#fff" result="bg"/><feBlend in="SourceGraphic" in2="bg"/></filter><mask id="fs" x="58.71" y="-8548.39" width=".18" height="32766" maskUnits="userSpaceOnUse"/><linearGradient id="fu" x1="23408.07" y1="-1931.98" x2="23407.59" y2="-1939.65" gradientTransform="translate(198.29 1702.91) rotate(-90) scale(.07)" xlink:href="#k"/><mask id="fq" x="58.71" y="17.47" width=".18" height=".18" maskUnits="userSpaceOnUse"><g class="js"><g class="kw"><rect class="hu" x="58.72" y="17.48" width=".16" height=".15" transform="translate(29.41 71.42) rotate(-78.01)"/></g></g></mask><linearGradient id="fv" x1="23408.07" y1="-1931.98" x2="23407.59" y2="-1939.65" gradientTransform="translate(198.29 1702.91) rotate(-90) scale(.07)" xlink:href="#l"/><mask id="fo" x="58.71" y="17.47" width=".18" height=".18" maskUnits="userSpaceOnUse"><g id="fp"><g class="ko"><rect class="gw" x="58.72" y="17.48" width=".16" height=".15" transform="translate(29.41 71.42) rotate(-78.01)"/></g></g></mask></defs><g id="c"><path class="gz" d="M52.86,26.13c-.78.11-1.56.26-2.32.46l-2.25-8.41-1.18-4.42c-.09-.32-.33-.57-.65-.66l-7.93-2.27.65-2.26,8.7,2.5c.63.18,1.13.68,1.3,1.32l1.75,6.53,1.93,7.22Z"/><g class="ka"><path class="gg" d="M50.46,26.17l-3.35-12.41c-.09-.32-.33-.57-.65-.66l-7.92-2.27.32-1.13,8.37,2.4c.39.11.69.41.79.8l3.7,13.32s-.47-.01-1.27-.04Z"/></g><path class="hl" d="M66.84,75.05c-.79,3.14-2.58,5.97-4.75,8.38-2.52,2.8-5.61,5.13-9.09,6.59-9.05,3.81-20.86.63-26.34-7.73-1.42-2.17-2.29-4.69-2.37-7.29-.11-3.6,1.15-7.12,2.9-10.21.91-1.61,1.97-3.13,3.14-4.57.55-.68,1.13-1.35,1.73-1.99.47-.51,1.5-1.19,1.79-1.81-1.46,3.2-2.31,6.95-2.2,10.46.09,3.04,1.12,6.11,3.47,8.15,4.36,3.78,12.74,4.32,17.95,2.24,2.78-1.11,5.22-3.46,5.72-6.42.24-1.4,0-2.91-.83-4.05-1.33-1.82-3.66-2.23-5.65-2.92-2.54-.88-5.03-1.87-7.38-3.18-3.37-1.88-6.54-4.53-7.83-8.16-.02-.06-.04-.11-.06-.17,0,0,0,0,0,0-.81-2.41-.72-5.07-.07-7.53,1.77-6.63,6.92-12.84,13.57-14.96,3.03-.97,6.33-1.04,9.4-.21,2.36.64,4.61,1.84,6.24,3.66,1.05,1.17,1.84,2.65,1.87,4.22.01.77-.75,3.03-1.47,4.97,0,0,0,0,0,0-.47,1.27-.91,2.4-1.11,2.9-.58,1.46-1.21,2.92-1.74,4.4-.97,2.74-1.21,5.62-.18,8.38-.07-.18-1.4-.51-1.59-.59-1.06-.44-2.09-.94-3.06-1.55-1.88-1.17-3.81-2.58-4.65-4.72-1.58-4.04,2.33-7.36,2.25-11.37-.04-1.79-1.21-2.96-3.02-2.48-2.22.59-11.29,9.71.86,18.61,2.44,1.79,4.87,3.6,7.27,5.46,4.36,3.37,6.63,7.94,5.25,13.5Z"/><g class="jt"><path class="fz" d="M42.4,88.96c-5.69-.69-10.79-3.7-13.64-8.04-1.22-1.86-1.9-3.93-1.96-5.99-.08-2.61.7-5.45,2.32-8.44,0,.15,0,.3,0,.45.13,4.12,1.67,7.65,4.33,9.96,2.34,2.02,5.76,3.4,9.65,3.87,3.83.47,7.8.03,10.87-1.2,3.87-1.54,6.65-4.73,7.26-8.33.37-2.17-.1-4.34-1.27-5.95-1.58-2.16-3.93-2.89-5.82-3.48-.37-.11-.71-.22-1.04-.34-2.92-1.01-5.07-1.94-6.98-3-3.53-1.97-5.78-4.25-6.68-6.8,0,0-.03-.09-.04-.12,0,0,0-.01,0-.02-.76-2.26-.43-4.55-.02-6.08.78-2.93,2.35-5.82,4.41-8.16,2.15-2.44,4.74-4.19,7.49-5.06,1.92-.61,4-.8,6.01-.56.67.08,1.33.21,1.97.38,1.46.4,3.52,1.22,5.03,2.92.76.85,1.19,1.74,1.23,2.53-.03.19-.21,1.12-1.29,4.07,0,.02-.02.04-.02.06-.32.88-.7,1.86-1.09,2.84-.19.48-.39.97-.58,1.44-.4.98-.82,2-1.19,3.05-.61,1.73-.94,3.41-.99,5.04-.05-.03-.1-.06-.15-.09-1.55-.96-3.07-2.05-3.63-3.5-.51-1.29-.02-2.53.88-4.61.74-1.71,1.58-3.64,1.54-5.9-.05-2.7-1.72-4.72-4.15-5.01-.65-.08-1.33-.03-2.02.16-2.33.62-6.12,4.37-7.01,9.08-.67,3.54.01,8.84,7.03,13.98,2.71,1.99,5.07,3.76,7.21,5.42,3.93,3.04,5.4,6.71,4.35,10.9-.61,2.45-2.02,4.91-4.18,7.31-2.38,2.64-5.21,4.7-8.2,5.96-2.92,1.23-6.25,1.66-9.63,1.25Z"/></g><path class="hs" d="M70.77,35.04c-.43-1.33-1.19-2.62-2.26-3.81-1.93-2.15-4.61-3.74-7.76-4.6-.9-.24-1.83-.43-2.77-.54-1.7-.21-3.43-.19-5.13.04-.78.11-1.56.26-2.32.46-.33.09-.65.18-.97.28-7.34,2.34-13.48,9.07-15.65,17.14-.13.49-.24.97-.33,1.46-4.3-11.03-5.33-24.6-5.33-24.6,0,0,4.1-6.69,20.02-2.69.84.21,1.72.45,2.63.73,1.13.34,2.31.73,3.54,1.17,2.54.91,5.31,2.06,8.33,3.48,6.23,2.42,9.29-.03,11.24-2.93h0c3.76,4.15.45,8.65-3.28,14.4Z"/><path class="is" d="M37.07,52.42s-.02-.04-.04-.06"/><path class="fz" d="M74.05,20.63c-1.96,2.9-5.02,5.35-11.24,2.93-3.02-1.42-5.79-2.57-8.33-3.48,1.59-.61,14.35-5.21,19.57.55Z"/><g class="in"><path class="gt" d="M40.92,20.39c.61.07,1,1.04.87,2.15s-.74,1.96-1.36,1.88-1-1.04-.87-2.15.74-1.96,1.36-1.88Z"/></g><g class="jo"><path class="fz" d="M41.73,22.88c0,.11-.01.23-.03.34-.14,1.11-.74,1.96-1.36,1.88s-1-1.04-.87-2.15c.01-.12.03-.23.06-.34-.03.96.34,1.74.89,1.81s1.09-.6,1.3-1.54Z"/></g><g class="iv"><path class="gt" d="M34.43,22.86c.9.11,1.47,1.53,1.27,3.16s-1.09,2.88-1.99,2.77-1.47-1.53-1.27-3.16c.2-1.64,1.09-2.88,1.99-2.77Z"/></g><g class="jf"><path class="fz" d="M35.62,26.52c0,.17-.02.33-.04.51-.2,1.64-1.09,2.88-1.99,2.77s-1.47-1.53-1.27-3.16c.02-.17.05-.34.08-.5-.04,1.41.5,2.56,1.31,2.66s1.61-.88,1.91-2.27h0Z"/></g><g class="id"><path class="gt" d="M73,25.3c.43.05.7.73.61,1.51s-.52,1.37-.95,1.32-.7-.73-.61-1.51.52-1.37.95-1.32Z"/></g><g class="iq"><path class="fz" d="M73.57,27.04c0,.08,0,.16-.02.24-.09.78-.52,1.37-.95,1.32s-.7-.73-.61-1.51c0-.08.02-.16.04-.24-.02.67.24,1.22.62,1.27s.77-.42.91-1.08h0Z"/></g><path class="gu" d="M53.6,17.83c-5.37-2.56-.59-6.67-.97-9.45,3.91,2.57,4.9,7.85.97,9.45Z"/><g class="iu"><path class="ga" d="M52.45,9.88c.16-.53.24-1.03.17-1.5,2.58,1.7,3.89,4.59,3.34,6.81.02-.14.3-3.16-3.52-5.31h0Z"/></g><path class="ge" d="M53.6,17.83c-.37-.18-.69-.36-.97-.55,2.57-3.39,1.37-5.82,1.37-5.82,1.52,2.78-.4,6.38-.4,6.38h0Z"/><g class="jn"><path class="ge" d="M54,11.45c.69,3.15-2.73,4.28-2.8,1.9-.42,1.64-.2,3.23,2.39,4.47-.37-.18-.69-.36-.96-.55,2.57-3.39,1.37-5.82,1.37-5.82h0Z"/></g><g class="im"><path class="ge" d="M55.86,15.57c-.98,1.01-1.28-.67-1.28-1.39-.08,1.96-.98,3.65-.98,3.65,1.18-.48,1.92-1.29,2.26-2.26h0Z"/></g><g class="ih"><path class="gt" d="M53.43,10.8c.1.08.05.3-.1.47s-.35.25-.45.17-.05-.3.1-.47.35-.25.45-.17Z"/></g><g class="kc"><path class="hq" d="M53.28,11.33s-.03.04-.04.06c-.15.18-.35.25-.45.17s-.05-.3.1-.47c.02-.02.03-.04.05-.05-.12.16-.14.34-.05.42s.26.02.4-.12h0Z"/></g><g class="jj"><path class="gt" d="M53.08,12.31c.07.06.04.2-.07.33s-.24.18-.31.12-.04-.2.07-.33.24-.18.31-.12Z"/></g><g class="jh"><path class="hq" d="M52.98,12.67s-.02.03-.03.04c-.1.12-.24.18-.31.12s-.04-.2.07-.33c.01-.01.02-.02.03-.04-.08.11-.1.24-.04.29s.18.01.28-.08h0Z"/></g><path class="hh" d="M54.94,18.25c2.03,2.07,3.17-.78,4.51-1.05-1.81-1.4-4.4-1.02-4.51,1.05Z"/><g class="kb"><path class="ga" d="M58.79,17.52c.22-.16.44-.27.66-.32-1.19-.92-2.73-1.07-3.67-.47.06-.03,1.41-.64,3.01.79h0Z"/></g><path class="ge" d="M54.94,18.25c.14.14.28.26.41.36,1.16-1.72,2.47-1.55,2.47-1.55-1.53-.26-2.88,1.19-2.88,1.19h0Z"/><g class="kg"><path class="ge" d="M57.82,17.05c-1.56.18-1.54,1.93-.43,1.59-.69.45-1.46.6-2.44-.4.14.14.27.26.4.36,1.16-1.72,2.47-1.55,2.47-1.55h0Z"/></g><g class="kh"><path class="ge" d="M55.63,16.84c-.31.61.51.49.84.37-.89.35-1.53,1.03-1.53,1.03.04-.62.29-1.09.69-1.4h0Z"/></g><g class="lb"><path class="gt" d="M59.2,16.93s-.1.05-.12.14,0,.16.05.17.1-.05.12-.14,0-.16-.05-.17Z"/></g><g class="jg"><path class="hq" d="M59.08,17.09s0,.02,0,.03c-.02.08,0,.16.05.17s.1-.05.12-.14c0,0,0-.02,0-.03-.02.07-.07.12-.11.11s-.06-.07-.06-.14h0Z"/></g><g class="ki"><path class="gt" d="M58.83,17.37s-.07.03-.08.09,0,.11.04.12.07-.03.08-.09,0-.11-.04-.12Z"/></g><g class="ip"><path class="hq" d="M58.75,17.48s0,.01,0,.02c-.01.06,0,.11.04.12s.07-.03.08-.09c0,0,0-.01,0-.02-.02.05-.05.08-.08.08s-.04-.05-.04-.1h0Z"/></g><rect class="gl" width="100" height="100"/></g></svg>